%TF.GenerationSoftware,KiCad,Pcbnew,(5.1.9)-1*%
%TF.CreationDate,2021-05-05T16:58:35+02:00*%
%TF.ProjectId,Driverino,44726976-6572-4696-9e6f-2e6b69636164,rev?*%
%TF.SameCoordinates,Original*%
%TF.FileFunction,Legend,Top*%
%TF.FilePolarity,Positive*%
%FSLAX46Y46*%
G04 Gerber Fmt 4.6, Leading zero omitted, Abs format (unit mm)*
G04 Created by KiCad (PCBNEW (5.1.9)-1) date 2021-05-05 16:58:35*
%MOMM*%
%LPD*%
G01*
G04 APERTURE LIST*
%ADD10C,0.120000*%
%ADD11C,0.200000*%
%ADD12C,0.150000*%
G04 APERTURE END LIST*
D10*
%TO.C,JP2*%
X135085000Y-86085000D02*
X135085000Y-84815000D01*
X132545000Y-86085000D02*
X136355000Y-86085000D01*
X132545000Y-84815000D02*
X132545000Y-86085000D01*
X136355000Y-84815000D02*
X132545000Y-84815000D01*
X136355000Y-86085000D02*
X136355000Y-84815000D01*
%TO.C,JP1*%
X132640000Y-100820000D02*
X133750000Y-100820000D01*
X132640000Y-101580000D02*
X132640000Y-100820000D01*
X134313471Y-102340000D02*
X134860000Y-102340000D01*
X132640000Y-102340000D02*
X133186529Y-102340000D01*
X134860000Y-102340000D02*
X134860000Y-104815000D01*
X132640000Y-102340000D02*
X132640000Y-104815000D01*
X134057530Y-104815000D02*
X134860000Y-104815000D01*
X132640000Y-104815000D02*
X133442470Y-104815000D01*
%TO.C,Y1*%
X147200000Y-97800000D02*
X147200000Y-100500000D01*
X149500000Y-97800000D02*
X147200000Y-97800000D01*
%TO.C,P2*%
X148870000Y-111150000D02*
X148870000Y-112480000D01*
X147540000Y-111150000D02*
X148870000Y-111150000D01*
X148870000Y-113750000D02*
X148870000Y-116350000D01*
X146270000Y-113750000D02*
X148870000Y-113750000D01*
X146270000Y-111150000D02*
X146270000Y-113750000D01*
X148870000Y-116350000D02*
X141130000Y-116350000D01*
X146270000Y-111150000D02*
X141130000Y-111150000D01*
X141130000Y-111150000D02*
X141130000Y-116350000D01*
D11*
%TO.C,P7*%
X143040000Y-76300000D02*
X136460000Y-76300000D01*
X144540000Y-82800000D02*
X136460000Y-82800000D01*
X144540000Y-82800000D02*
X144540000Y-79300000D01*
X136460000Y-82800000D02*
X136460000Y-76300000D01*
D10*
%TO.C,U3*%
X137750000Y-92650000D02*
X137850000Y-92650000D01*
X137850000Y-92650000D02*
X137850000Y-91750000D01*
X137750000Y-85350000D02*
X137850000Y-85350000D01*
X137850000Y-85350000D02*
X137850000Y-86250000D01*
X143250000Y-85350000D02*
X143150000Y-85350000D01*
X143150000Y-85350000D02*
X143150000Y-86250000D01*
X143250000Y-92650000D02*
X143300000Y-92650000D01*
%TO.C,C8*%
X137142164Y-100760000D02*
X137357836Y-100760000D01*
X137142164Y-100040000D02*
X137357836Y-100040000D01*
%TO.C,C10*%
X148242164Y-101510000D02*
X148457836Y-101510000D01*
X148242164Y-100790000D02*
X148457836Y-100790000D01*
%TO.C,C11*%
X148242164Y-96790000D02*
X148457836Y-96790000D01*
X148242164Y-97510000D02*
X148457836Y-97510000D01*
%TO.C,C17*%
X152008750Y-86793750D02*
X152796250Y-86793750D01*
X152402500Y-87187500D02*
X152402500Y-86400000D01*
X156595563Y-86160000D02*
X157660000Y-85095563D01*
X151904437Y-86160000D02*
X150840000Y-85095563D01*
X151904437Y-86160000D02*
X153190000Y-86160000D01*
X156595563Y-86160000D02*
X155310000Y-86160000D01*
X157660000Y-85095563D02*
X157660000Y-79340000D01*
X150840000Y-85095563D02*
X150840000Y-79340000D01*
X150840000Y-79340000D02*
X153190000Y-79340000D01*
X157660000Y-79340000D02*
X155310000Y-79340000D01*
%TO.C,C18*%
X148590000Y-85961252D02*
X148590000Y-84538748D01*
X150410000Y-85961252D02*
X150410000Y-84538748D01*
%TO.C,C19*%
X145760000Y-86640580D02*
X145760000Y-86359420D01*
X144740000Y-86640580D02*
X144740000Y-86359420D01*
%TO.C,C20*%
X146860000Y-85107836D02*
X146860000Y-84892164D01*
X146140000Y-85107836D02*
X146140000Y-84892164D01*
%TO.C,C21*%
X144892164Y-88140000D02*
X145107836Y-88140000D01*
X144892164Y-88860000D02*
X145107836Y-88860000D01*
%TO.C,C22*%
X149590000Y-89288748D02*
X149590000Y-90711252D01*
X151410000Y-89288748D02*
X151410000Y-90711252D01*
%TO.C,D2*%
X156550000Y-100940000D02*
X154265000Y-100940000D01*
X154265000Y-100940000D02*
X154265000Y-102410000D01*
X154265000Y-102410000D02*
X156550000Y-102410000D01*
%TO.C,D3*%
X156600000Y-92515000D02*
X154315000Y-92515000D01*
X154315000Y-92515000D02*
X154315000Y-93985000D01*
X154315000Y-93985000D02*
X156600000Y-93985000D01*
%TO.C,D5*%
X135735000Y-77665000D02*
X133450000Y-77665000D01*
X135735000Y-79135000D02*
X135735000Y-77665000D01*
X133450000Y-79135000D02*
X135735000Y-79135000D01*
%TO.C,D6*%
X154265000Y-104085000D02*
X156550000Y-104085000D01*
X154265000Y-102615000D02*
X154265000Y-104085000D01*
X156550000Y-102615000D02*
X154265000Y-102615000D01*
%TO.C,D7*%
X156725000Y-76440000D02*
X154440000Y-76440000D01*
X154440000Y-76440000D02*
X154440000Y-77910000D01*
X154440000Y-77910000D02*
X156725000Y-77910000D01*
%TO.C,D8*%
X135785000Y-80665000D02*
X133500000Y-80665000D01*
X135785000Y-82135000D02*
X135785000Y-80665000D01*
X133500000Y-82135000D02*
X135785000Y-82135000D01*
%TO.C,L2*%
X146390000Y-89397936D02*
X146390000Y-90602064D01*
X149110000Y-89397936D02*
X149110000Y-90602064D01*
%TO.C,P1*%
X157470000Y-104980000D02*
X157470000Y-106250000D01*
X156200000Y-104980000D02*
X157470000Y-104980000D01*
X150740000Y-107292929D02*
X150740000Y-107690000D01*
X151500000Y-107292929D02*
X151500000Y-107690000D01*
X150740000Y-116350000D02*
X150740000Y-110350000D01*
X151500000Y-116350000D02*
X150740000Y-116350000D01*
X151500000Y-110350000D02*
X151500000Y-116350000D01*
X152390000Y-107690000D02*
X152390000Y-110350000D01*
X153280000Y-107292929D02*
X153280000Y-107690000D01*
X154040000Y-107292929D02*
X154040000Y-107690000D01*
X153280000Y-116350000D02*
X153280000Y-110350000D01*
X154040000Y-116350000D02*
X153280000Y-116350000D01*
X154040000Y-110350000D02*
X154040000Y-116350000D01*
X154930000Y-107690000D02*
X154930000Y-110350000D01*
X155820000Y-107360000D02*
X155820000Y-107690000D01*
X156580000Y-107360000D02*
X156580000Y-107690000D01*
X155920000Y-110350000D02*
X155920000Y-116350000D01*
X156040000Y-110350000D02*
X156040000Y-116350000D01*
X156160000Y-110350000D02*
X156160000Y-116350000D01*
X156280000Y-110350000D02*
X156280000Y-116350000D01*
X156400000Y-110350000D02*
X156400000Y-116350000D01*
X156520000Y-110350000D02*
X156520000Y-116350000D01*
X155820000Y-116350000D02*
X155820000Y-110350000D01*
X156580000Y-116350000D02*
X155820000Y-116350000D01*
X156580000Y-110350000D02*
X156580000Y-116350000D01*
X157530000Y-110350000D02*
X157530000Y-107690000D01*
X149790000Y-110350000D02*
X157530000Y-110350000D01*
X149790000Y-107690000D02*
X149790000Y-110350000D01*
X157530000Y-107690000D02*
X149790000Y-107690000D01*
%TO.C,P3*%
X135025000Y-111285000D02*
X134625000Y-110835000D01*
X134625000Y-110835000D02*
X135425000Y-110835000D01*
X135425000Y-110835000D02*
X135025000Y-111285000D01*
X140175000Y-116885000D02*
X140175000Y-114085000D01*
X140175000Y-114085000D02*
X140475000Y-114085000D01*
X140475000Y-114085000D02*
X140475000Y-112535000D01*
X132475000Y-116885000D02*
X132475000Y-114085000D01*
X132175000Y-114085000D02*
X132475000Y-114085000D01*
X132175000Y-114085000D02*
X132175000Y-112535000D01*
%TO.C,P4*%
X157900000Y-100550000D02*
X157900000Y-99550000D01*
X157900000Y-100550000D02*
X156900000Y-100550000D01*
X154700000Y-95050000D02*
X154700000Y-97400000D01*
X155550000Y-95050000D02*
X154700000Y-95050000D01*
X155550000Y-94850000D02*
X155550000Y-95050000D01*
X156350000Y-94850000D02*
X155550000Y-94850000D01*
X156350000Y-95050000D02*
X156350000Y-94850000D01*
X157100000Y-95050000D02*
X156350000Y-95050000D01*
X157100000Y-97400000D02*
X157100000Y-95050000D01*
X154700000Y-99750000D02*
X154700000Y-97400000D01*
X155550000Y-99750000D02*
X154700000Y-99750000D01*
X155550000Y-99950000D02*
X155550000Y-99750000D01*
X156350000Y-99950000D02*
X155550000Y-99950000D01*
X156350000Y-99750000D02*
X156350000Y-99950000D01*
X157100000Y-99750000D02*
X156350000Y-99750000D01*
X157100000Y-97400000D02*
X157100000Y-99750000D01*
X154190000Y-94540000D02*
X154190000Y-100260000D01*
X157610000Y-94540000D02*
X154190000Y-94540000D01*
X157610000Y-100260000D02*
X157610000Y-94540000D01*
X154190000Y-100260000D02*
X157610000Y-100260000D01*
D11*
%TO.C,P5*%
X150500000Y-82750000D02*
X150500000Y-79250000D01*
X144960000Y-82750000D02*
X150500000Y-82750000D01*
X144960000Y-76250000D02*
X144960000Y-82750000D01*
X149000000Y-76250000D02*
X144960000Y-76250000D01*
D10*
%TO.C,P6*%
X136150000Y-99000000D02*
X136150000Y-98000000D01*
X136150000Y-99000000D02*
X135150000Y-99000000D01*
X132950000Y-87250000D02*
X132950000Y-92725000D01*
X133800000Y-87250000D02*
X132950000Y-87250000D01*
X133800000Y-87050000D02*
X133800000Y-87250000D01*
X134600000Y-87050000D02*
X133800000Y-87050000D01*
X134600000Y-87250000D02*
X134600000Y-87050000D01*
X135350000Y-87250000D02*
X134600000Y-87250000D01*
X135350000Y-92725000D02*
X135350000Y-87250000D01*
X132950000Y-98200000D02*
X132950000Y-92725000D01*
X133800000Y-98200000D02*
X132950000Y-98200000D01*
X133800000Y-98400000D02*
X133800000Y-98200000D01*
X134600000Y-98400000D02*
X133800000Y-98400000D01*
X134600000Y-98200000D02*
X134600000Y-98400000D01*
X135350000Y-98200000D02*
X134600000Y-98200000D01*
X135350000Y-92725000D02*
X135350000Y-98200000D01*
X132440000Y-86740000D02*
X132440000Y-98710000D01*
X135860000Y-86740000D02*
X132440000Y-86740000D01*
X135860000Y-98710000D02*
X135860000Y-86740000D01*
X132440000Y-98710000D02*
X135860000Y-98710000D01*
%TO.C,R4*%
X137428641Y-97580000D02*
X137121359Y-97580000D01*
X137428641Y-96820000D02*
X137121359Y-96820000D01*
%TO.C,R7*%
X137246359Y-95182500D02*
X137553641Y-95182500D01*
X137246359Y-95942500D02*
X137553641Y-95942500D01*
%TO.C,R8*%
X137403641Y-97870000D02*
X137096359Y-97870000D01*
X137403641Y-98630000D02*
X137096359Y-98630000D01*
%TO.C,R12*%
X135880000Y-109253641D02*
X135880000Y-108946359D01*
X135120000Y-109253641D02*
X135120000Y-108946359D01*
%TO.C,R13*%
X136880000Y-109253641D02*
X136880000Y-108946359D01*
X136120000Y-109253641D02*
X136120000Y-108946359D01*
%TO.C,R26*%
X157380000Y-87146359D02*
X157380000Y-87453641D01*
X156620000Y-87146359D02*
X156620000Y-87453641D01*
%TO.C,SW1*%
X147950000Y-109600000D02*
X147650000Y-109600000D01*
X147950000Y-106300000D02*
X147950000Y-109600000D01*
X147650000Y-106300000D02*
X147950000Y-106300000D01*
X145150000Y-109600000D02*
X145450000Y-109600000D01*
X145150000Y-106300000D02*
X145150000Y-109600000D01*
X145450000Y-106300000D02*
X145150000Y-106300000D01*
%TO.C,U1*%
X138890000Y-101785000D02*
X138890000Y-102510000D01*
X146110000Y-95290000D02*
X145385000Y-95290000D01*
X146110000Y-96015000D02*
X146110000Y-95290000D01*
X146110000Y-102510000D02*
X145385000Y-102510000D01*
X146110000Y-101785000D02*
X146110000Y-102510000D01*
X138890000Y-95290000D02*
X139615000Y-95290000D01*
X138890000Y-96015000D02*
X138890000Y-95290000D01*
%TO.C,U2*%
X150750000Y-95250000D02*
X149950000Y-95250000D01*
X150100000Y-98550000D02*
X150100000Y-97900000D01*
X150750000Y-98550000D02*
X150100000Y-98550000D01*
X153400000Y-98550000D02*
X153400000Y-97900000D01*
X152750000Y-98550000D02*
X153400000Y-98550000D01*
X153400000Y-95250000D02*
X153400000Y-95900000D01*
X152750000Y-95250000D02*
X153400000Y-95250000D01*
%TO.C,F1*%
D12*
X133416666Y-107428571D02*
X133083333Y-107428571D01*
X133083333Y-107952380D02*
X133083333Y-106952380D01*
X133559523Y-106952380D01*
X134464285Y-107952380D02*
X133892857Y-107952380D01*
X134178571Y-107952380D02*
X134178571Y-106952380D01*
X134083333Y-107095238D01*
X133988095Y-107190476D01*
X133892857Y-107238095D01*
%TO.C,JP2*%
X133616666Y-83552380D02*
X133616666Y-84266666D01*
X133569047Y-84409523D01*
X133473809Y-84504761D01*
X133330952Y-84552380D01*
X133235714Y-84552380D01*
X134092857Y-84552380D02*
X134092857Y-83552380D01*
X134473809Y-83552380D01*
X134569047Y-83600000D01*
X134616666Y-83647619D01*
X134664285Y-83742857D01*
X134664285Y-83885714D01*
X134616666Y-83980952D01*
X134569047Y-84028571D01*
X134473809Y-84076190D01*
X134092857Y-84076190D01*
X135045238Y-83647619D02*
X135092857Y-83600000D01*
X135188095Y-83552380D01*
X135426190Y-83552380D01*
X135521428Y-83600000D01*
X135569047Y-83647619D01*
X135616666Y-83742857D01*
X135616666Y-83838095D01*
X135569047Y-83980952D01*
X134997619Y-84552380D01*
X135616666Y-84552380D01*
%TO.C,JP1*%
X132916666Y-99602380D02*
X132916666Y-100316666D01*
X132869047Y-100459523D01*
X132773809Y-100554761D01*
X132630952Y-100602380D01*
X132535714Y-100602380D01*
X133392857Y-100602380D02*
X133392857Y-99602380D01*
X133773809Y-99602380D01*
X133869047Y-99650000D01*
X133916666Y-99697619D01*
X133964285Y-99792857D01*
X133964285Y-99935714D01*
X133916666Y-100030952D01*
X133869047Y-100078571D01*
X133773809Y-100126190D01*
X133392857Y-100126190D01*
X134916666Y-100602380D02*
X134345238Y-100602380D01*
X134630952Y-100602380D02*
X134630952Y-99602380D01*
X134535714Y-99745238D01*
X134440476Y-99840476D01*
X134345238Y-99888095D01*
%TO.C,Y1*%
X149892857Y-99982142D02*
X149892857Y-100339285D01*
X149642857Y-99589285D02*
X149892857Y-99982142D01*
X150142857Y-99589285D01*
X150785714Y-100339285D02*
X150357142Y-100339285D01*
X150571428Y-100339285D02*
X150571428Y-99589285D01*
X150500000Y-99696428D01*
X150428571Y-99767857D01*
X150357142Y-99803571D01*
%TO.C,P2*%
X141261904Y-109952380D02*
X141261904Y-108952380D01*
X141642857Y-108952380D01*
X141738095Y-109000000D01*
X141785714Y-109047619D01*
X141833333Y-109142857D01*
X141833333Y-109285714D01*
X141785714Y-109380952D01*
X141738095Y-109428571D01*
X141642857Y-109476190D01*
X141261904Y-109476190D01*
X142214285Y-109047619D02*
X142261904Y-109000000D01*
X142357142Y-108952380D01*
X142595238Y-108952380D01*
X142690476Y-109000000D01*
X142738095Y-109047619D01*
X142785714Y-109142857D01*
X142785714Y-109238095D01*
X142738095Y-109380952D01*
X142166666Y-109952380D01*
X142785714Y-109952380D01*
%TO.C,P7*%
X139801904Y-83952380D02*
X139801904Y-82952380D01*
X140182857Y-82952380D01*
X140278095Y-83000000D01*
X140325714Y-83047619D01*
X140373333Y-83142857D01*
X140373333Y-83285714D01*
X140325714Y-83380952D01*
X140278095Y-83428571D01*
X140182857Y-83476190D01*
X139801904Y-83476190D01*
X140706666Y-82952380D02*
X141373333Y-82952380D01*
X140944761Y-83952380D01*
%TO.C,U3*%
X137238095Y-83952380D02*
X137238095Y-84761904D01*
X137285714Y-84857142D01*
X137333333Y-84904761D01*
X137428571Y-84952380D01*
X137619047Y-84952380D01*
X137714285Y-84904761D01*
X137761904Y-84857142D01*
X137809523Y-84761904D01*
X137809523Y-83952380D01*
X138190476Y-83952380D02*
X138809523Y-83952380D01*
X138476190Y-84333333D01*
X138619047Y-84333333D01*
X138714285Y-84380952D01*
X138761904Y-84428571D01*
X138809523Y-84523809D01*
X138809523Y-84761904D01*
X138761904Y-84857142D01*
X138714285Y-84904761D01*
X138619047Y-84952380D01*
X138333333Y-84952380D01*
X138238095Y-84904761D01*
X138190476Y-84857142D01*
%TO.C,C8*%
X137125000Y-101667857D02*
X137089285Y-101703571D01*
X136982142Y-101739285D01*
X136910714Y-101739285D01*
X136803571Y-101703571D01*
X136732142Y-101632142D01*
X136696428Y-101560714D01*
X136660714Y-101417857D01*
X136660714Y-101310714D01*
X136696428Y-101167857D01*
X136732142Y-101096428D01*
X136803571Y-101025000D01*
X136910714Y-100989285D01*
X136982142Y-100989285D01*
X137089285Y-101025000D01*
X137125000Y-101060714D01*
X137553571Y-101310714D02*
X137482142Y-101275000D01*
X137446428Y-101239285D01*
X137410714Y-101167857D01*
X137410714Y-101132142D01*
X137446428Y-101060714D01*
X137482142Y-101025000D01*
X137553571Y-100989285D01*
X137696428Y-100989285D01*
X137767857Y-101025000D01*
X137803571Y-101060714D01*
X137839285Y-101132142D01*
X137839285Y-101167857D01*
X137803571Y-101239285D01*
X137767857Y-101275000D01*
X137696428Y-101310714D01*
X137553571Y-101310714D01*
X137482142Y-101346428D01*
X137446428Y-101382142D01*
X137410714Y-101453571D01*
X137410714Y-101596428D01*
X137446428Y-101667857D01*
X137482142Y-101703571D01*
X137553571Y-101739285D01*
X137696428Y-101739285D01*
X137767857Y-101703571D01*
X137803571Y-101667857D01*
X137839285Y-101596428D01*
X137839285Y-101453571D01*
X137803571Y-101382142D01*
X137767857Y-101346428D01*
X137696428Y-101310714D01*
%TO.C,C10*%
X149917857Y-101417857D02*
X149882142Y-101453571D01*
X149775000Y-101489285D01*
X149703571Y-101489285D01*
X149596428Y-101453571D01*
X149525000Y-101382142D01*
X149489285Y-101310714D01*
X149453571Y-101167857D01*
X149453571Y-101060714D01*
X149489285Y-100917857D01*
X149525000Y-100846428D01*
X149596428Y-100775000D01*
X149703571Y-100739285D01*
X149775000Y-100739285D01*
X149882142Y-100775000D01*
X149917857Y-100810714D01*
X150632142Y-101489285D02*
X150203571Y-101489285D01*
X150417857Y-101489285D02*
X150417857Y-100739285D01*
X150346428Y-100846428D01*
X150275000Y-100917857D01*
X150203571Y-100953571D01*
X151096428Y-100739285D02*
X151167857Y-100739285D01*
X151239285Y-100775000D01*
X151275000Y-100810714D01*
X151310714Y-100882142D01*
X151346428Y-101025000D01*
X151346428Y-101203571D01*
X151310714Y-101346428D01*
X151275000Y-101417857D01*
X151239285Y-101453571D01*
X151167857Y-101489285D01*
X151096428Y-101489285D01*
X151025000Y-101453571D01*
X150989285Y-101417857D01*
X150953571Y-101346428D01*
X150917857Y-101203571D01*
X150917857Y-101025000D01*
X150953571Y-100882142D01*
X150989285Y-100810714D01*
X151025000Y-100775000D01*
X151096428Y-100739285D01*
%TO.C,C11*%
X147767857Y-96517857D02*
X147732142Y-96553571D01*
X147625000Y-96589285D01*
X147553571Y-96589285D01*
X147446428Y-96553571D01*
X147375000Y-96482142D01*
X147339285Y-96410714D01*
X147303571Y-96267857D01*
X147303571Y-96160714D01*
X147339285Y-96017857D01*
X147375000Y-95946428D01*
X147446428Y-95875000D01*
X147553571Y-95839285D01*
X147625000Y-95839285D01*
X147732142Y-95875000D01*
X147767857Y-95910714D01*
X148482142Y-96589285D02*
X148053571Y-96589285D01*
X148267857Y-96589285D02*
X148267857Y-95839285D01*
X148196428Y-95946428D01*
X148125000Y-96017857D01*
X148053571Y-96053571D01*
X149196428Y-96589285D02*
X148767857Y-96589285D01*
X148982142Y-96589285D02*
X148982142Y-95839285D01*
X148910714Y-95946428D01*
X148839285Y-96017857D01*
X148767857Y-96053571D01*
%TO.C,C17*%
X151232142Y-78957142D02*
X151184523Y-79004761D01*
X151041666Y-79052380D01*
X150946428Y-79052380D01*
X150803571Y-79004761D01*
X150708333Y-78909523D01*
X150660714Y-78814285D01*
X150613095Y-78623809D01*
X150613095Y-78480952D01*
X150660714Y-78290476D01*
X150708333Y-78195238D01*
X150803571Y-78100000D01*
X150946428Y-78052380D01*
X151041666Y-78052380D01*
X151184523Y-78100000D01*
X151232142Y-78147619D01*
X152184523Y-79052380D02*
X151613095Y-79052380D01*
X151898809Y-79052380D02*
X151898809Y-78052380D01*
X151803571Y-78195238D01*
X151708333Y-78290476D01*
X151613095Y-78338095D01*
X152517857Y-78052380D02*
X153184523Y-78052380D01*
X152755952Y-79052380D01*
%TO.C,C18*%
X148017857Y-85732142D02*
X148053571Y-85767857D01*
X148089285Y-85875000D01*
X148089285Y-85946428D01*
X148053571Y-86053571D01*
X147982142Y-86125000D01*
X147910714Y-86160714D01*
X147767857Y-86196428D01*
X147660714Y-86196428D01*
X147517857Y-86160714D01*
X147446428Y-86125000D01*
X147375000Y-86053571D01*
X147339285Y-85946428D01*
X147339285Y-85875000D01*
X147375000Y-85767857D01*
X147410714Y-85732142D01*
X148089285Y-85017857D02*
X148089285Y-85446428D01*
X148089285Y-85232142D02*
X147339285Y-85232142D01*
X147446428Y-85303571D01*
X147517857Y-85375000D01*
X147553571Y-85446428D01*
X147660714Y-84589285D02*
X147625000Y-84660714D01*
X147589285Y-84696428D01*
X147517857Y-84732142D01*
X147482142Y-84732142D01*
X147410714Y-84696428D01*
X147375000Y-84660714D01*
X147339285Y-84589285D01*
X147339285Y-84446428D01*
X147375000Y-84375000D01*
X147410714Y-84339285D01*
X147482142Y-84303571D01*
X147517857Y-84303571D01*
X147589285Y-84339285D01*
X147625000Y-84375000D01*
X147660714Y-84446428D01*
X147660714Y-84589285D01*
X147696428Y-84660714D01*
X147732142Y-84696428D01*
X147803571Y-84732142D01*
X147946428Y-84732142D01*
X148017857Y-84696428D01*
X148053571Y-84660714D01*
X148089285Y-84589285D01*
X148089285Y-84446428D01*
X148053571Y-84375000D01*
X148017857Y-84339285D01*
X147946428Y-84303571D01*
X147803571Y-84303571D01*
X147732142Y-84339285D01*
X147696428Y-84375000D01*
X147660714Y-84446428D01*
%TO.C,C19*%
X144267857Y-86982142D02*
X144303571Y-87017857D01*
X144339285Y-87125000D01*
X144339285Y-87196428D01*
X144303571Y-87303571D01*
X144232142Y-87375000D01*
X144160714Y-87410714D01*
X144017857Y-87446428D01*
X143910714Y-87446428D01*
X143767857Y-87410714D01*
X143696428Y-87375000D01*
X143625000Y-87303571D01*
X143589285Y-87196428D01*
X143589285Y-87125000D01*
X143625000Y-87017857D01*
X143660714Y-86982142D01*
X144339285Y-86267857D02*
X144339285Y-86696428D01*
X144339285Y-86482142D02*
X143589285Y-86482142D01*
X143696428Y-86553571D01*
X143767857Y-86625000D01*
X143803571Y-86696428D01*
X144339285Y-85910714D02*
X144339285Y-85767857D01*
X144303571Y-85696428D01*
X144267857Y-85660714D01*
X144160714Y-85589285D01*
X144017857Y-85553571D01*
X143732142Y-85553571D01*
X143660714Y-85589285D01*
X143625000Y-85625000D01*
X143589285Y-85696428D01*
X143589285Y-85839285D01*
X143625000Y-85910714D01*
X143660714Y-85946428D01*
X143732142Y-85982142D01*
X143910714Y-85982142D01*
X143982142Y-85946428D01*
X144017857Y-85910714D01*
X144053571Y-85839285D01*
X144053571Y-85696428D01*
X144017857Y-85625000D01*
X143982142Y-85589285D01*
X143910714Y-85553571D01*
%TO.C,C20*%
X144417857Y-84817857D02*
X144382142Y-84853571D01*
X144275000Y-84889285D01*
X144203571Y-84889285D01*
X144096428Y-84853571D01*
X144025000Y-84782142D01*
X143989285Y-84710714D01*
X143953571Y-84567857D01*
X143953571Y-84460714D01*
X143989285Y-84317857D01*
X144025000Y-84246428D01*
X144096428Y-84175000D01*
X144203571Y-84139285D01*
X144275000Y-84139285D01*
X144382142Y-84175000D01*
X144417857Y-84210714D01*
X144703571Y-84210714D02*
X144739285Y-84175000D01*
X144810714Y-84139285D01*
X144989285Y-84139285D01*
X145060714Y-84175000D01*
X145096428Y-84210714D01*
X145132142Y-84282142D01*
X145132142Y-84353571D01*
X145096428Y-84460714D01*
X144667857Y-84889285D01*
X145132142Y-84889285D01*
X145596428Y-84139285D02*
X145667857Y-84139285D01*
X145739285Y-84175000D01*
X145775000Y-84210714D01*
X145810714Y-84282142D01*
X145846428Y-84425000D01*
X145846428Y-84603571D01*
X145810714Y-84746428D01*
X145775000Y-84817857D01*
X145739285Y-84853571D01*
X145667857Y-84889285D01*
X145596428Y-84889285D01*
X145525000Y-84853571D01*
X145489285Y-84817857D01*
X145453571Y-84746428D01*
X145417857Y-84603571D01*
X145417857Y-84425000D01*
X145453571Y-84282142D01*
X145489285Y-84210714D01*
X145525000Y-84175000D01*
X145596428Y-84139285D01*
%TO.C,C21*%
X144517857Y-89767857D02*
X144482142Y-89803571D01*
X144375000Y-89839285D01*
X144303571Y-89839285D01*
X144196428Y-89803571D01*
X144125000Y-89732142D01*
X144089285Y-89660714D01*
X144053571Y-89517857D01*
X144053571Y-89410714D01*
X144089285Y-89267857D01*
X144125000Y-89196428D01*
X144196428Y-89125000D01*
X144303571Y-89089285D01*
X144375000Y-89089285D01*
X144482142Y-89125000D01*
X144517857Y-89160714D01*
X144803571Y-89160714D02*
X144839285Y-89125000D01*
X144910714Y-89089285D01*
X145089285Y-89089285D01*
X145160714Y-89125000D01*
X145196428Y-89160714D01*
X145232142Y-89232142D01*
X145232142Y-89303571D01*
X145196428Y-89410714D01*
X144767857Y-89839285D01*
X145232142Y-89839285D01*
X145946428Y-89839285D02*
X145517857Y-89839285D01*
X145732142Y-89839285D02*
X145732142Y-89089285D01*
X145660714Y-89196428D01*
X145589285Y-89267857D01*
X145517857Y-89303571D01*
%TO.C,C22*%
X149857142Y-93357142D02*
X149809523Y-93404761D01*
X149666666Y-93452380D01*
X149571428Y-93452380D01*
X149428571Y-93404761D01*
X149333333Y-93309523D01*
X149285714Y-93214285D01*
X149238095Y-93023809D01*
X149238095Y-92880952D01*
X149285714Y-92690476D01*
X149333333Y-92595238D01*
X149428571Y-92500000D01*
X149571428Y-92452380D01*
X149666666Y-92452380D01*
X149809523Y-92500000D01*
X149857142Y-92547619D01*
X150238095Y-92547619D02*
X150285714Y-92500000D01*
X150380952Y-92452380D01*
X150619047Y-92452380D01*
X150714285Y-92500000D01*
X150761904Y-92547619D01*
X150809523Y-92642857D01*
X150809523Y-92738095D01*
X150761904Y-92880952D01*
X150190476Y-93452380D01*
X150809523Y-93452380D01*
X151190476Y-92547619D02*
X151238095Y-92500000D01*
X151333333Y-92452380D01*
X151571428Y-92452380D01*
X151666666Y-92500000D01*
X151714285Y-92547619D01*
X151761904Y-92642857D01*
X151761904Y-92738095D01*
X151714285Y-92880952D01*
X151142857Y-93452380D01*
X151761904Y-93452380D01*
%TO.C,D2*%
X152361904Y-102152380D02*
X152361904Y-101152380D01*
X152600000Y-101152380D01*
X152742857Y-101200000D01*
X152838095Y-101295238D01*
X152885714Y-101390476D01*
X152933333Y-101580952D01*
X152933333Y-101723809D01*
X152885714Y-101914285D01*
X152838095Y-102009523D01*
X152742857Y-102104761D01*
X152600000Y-102152380D01*
X152361904Y-102152380D01*
X153314285Y-101247619D02*
X153361904Y-101200000D01*
X153457142Y-101152380D01*
X153695238Y-101152380D01*
X153790476Y-101200000D01*
X153838095Y-101247619D01*
X153885714Y-101342857D01*
X153885714Y-101438095D01*
X153838095Y-101580952D01*
X153266666Y-102152380D01*
X153885714Y-102152380D01*
%TO.C,D3*%
X155011904Y-92202380D02*
X155011904Y-91202380D01*
X155250000Y-91202380D01*
X155392857Y-91250000D01*
X155488095Y-91345238D01*
X155535714Y-91440476D01*
X155583333Y-91630952D01*
X155583333Y-91773809D01*
X155535714Y-91964285D01*
X155488095Y-92059523D01*
X155392857Y-92154761D01*
X155250000Y-92202380D01*
X155011904Y-92202380D01*
X155916666Y-91202380D02*
X156535714Y-91202380D01*
X156202380Y-91583333D01*
X156345238Y-91583333D01*
X156440476Y-91630952D01*
X156488095Y-91678571D01*
X156535714Y-91773809D01*
X156535714Y-92011904D01*
X156488095Y-92107142D01*
X156440476Y-92154761D01*
X156345238Y-92202380D01*
X156059523Y-92202380D01*
X155964285Y-92154761D01*
X155916666Y-92107142D01*
%TO.C,D5*%
X133511904Y-77402380D02*
X133511904Y-76402380D01*
X133750000Y-76402380D01*
X133892857Y-76450000D01*
X133988095Y-76545238D01*
X134035714Y-76640476D01*
X134083333Y-76830952D01*
X134083333Y-76973809D01*
X134035714Y-77164285D01*
X133988095Y-77259523D01*
X133892857Y-77354761D01*
X133750000Y-77402380D01*
X133511904Y-77402380D01*
X134988095Y-76402380D02*
X134511904Y-76402380D01*
X134464285Y-76878571D01*
X134511904Y-76830952D01*
X134607142Y-76783333D01*
X134845238Y-76783333D01*
X134940476Y-76830952D01*
X134988095Y-76878571D01*
X135035714Y-76973809D01*
X135035714Y-77211904D01*
X134988095Y-77307142D01*
X134940476Y-77354761D01*
X134845238Y-77402380D01*
X134607142Y-77402380D01*
X134511904Y-77354761D01*
X134464285Y-77307142D01*
%TO.C,D6*%
X152361904Y-103852380D02*
X152361904Y-102852380D01*
X152600000Y-102852380D01*
X152742857Y-102900000D01*
X152838095Y-102995238D01*
X152885714Y-103090476D01*
X152933333Y-103280952D01*
X152933333Y-103423809D01*
X152885714Y-103614285D01*
X152838095Y-103709523D01*
X152742857Y-103804761D01*
X152600000Y-103852380D01*
X152361904Y-103852380D01*
X153790476Y-102852380D02*
X153600000Y-102852380D01*
X153504761Y-102900000D01*
X153457142Y-102947619D01*
X153361904Y-103090476D01*
X153314285Y-103280952D01*
X153314285Y-103661904D01*
X153361904Y-103757142D01*
X153409523Y-103804761D01*
X153504761Y-103852380D01*
X153695238Y-103852380D01*
X153790476Y-103804761D01*
X153838095Y-103757142D01*
X153885714Y-103661904D01*
X153885714Y-103423809D01*
X153838095Y-103328571D01*
X153790476Y-103280952D01*
X153695238Y-103233333D01*
X153504761Y-103233333D01*
X153409523Y-103280952D01*
X153361904Y-103328571D01*
X153314285Y-103423809D01*
%TO.C,D7*%
X153071428Y-77514285D02*
X153071428Y-76764285D01*
X153250000Y-76764285D01*
X153357142Y-76800000D01*
X153428571Y-76871428D01*
X153464285Y-76942857D01*
X153500000Y-77085714D01*
X153500000Y-77192857D01*
X153464285Y-77335714D01*
X153428571Y-77407142D01*
X153357142Y-77478571D01*
X153250000Y-77514285D01*
X153071428Y-77514285D01*
X153750000Y-76764285D02*
X154250000Y-76764285D01*
X153928571Y-77514285D01*
%TO.C,D8*%
X133561904Y-80452380D02*
X133561904Y-79452380D01*
X133800000Y-79452380D01*
X133942857Y-79500000D01*
X134038095Y-79595238D01*
X134085714Y-79690476D01*
X134133333Y-79880952D01*
X134133333Y-80023809D01*
X134085714Y-80214285D01*
X134038095Y-80309523D01*
X133942857Y-80404761D01*
X133800000Y-80452380D01*
X133561904Y-80452380D01*
X134704761Y-79880952D02*
X134609523Y-79833333D01*
X134561904Y-79785714D01*
X134514285Y-79690476D01*
X134514285Y-79642857D01*
X134561904Y-79547619D01*
X134609523Y-79500000D01*
X134704761Y-79452380D01*
X134895238Y-79452380D01*
X134990476Y-79500000D01*
X135038095Y-79547619D01*
X135085714Y-79642857D01*
X135085714Y-79690476D01*
X135038095Y-79785714D01*
X134990476Y-79833333D01*
X134895238Y-79880952D01*
X134704761Y-79880952D01*
X134609523Y-79928571D01*
X134561904Y-79976190D01*
X134514285Y-80071428D01*
X134514285Y-80261904D01*
X134561904Y-80357142D01*
X134609523Y-80404761D01*
X134704761Y-80452380D01*
X134895238Y-80452380D01*
X134990476Y-80404761D01*
X135038095Y-80357142D01*
X135085714Y-80261904D01*
X135085714Y-80071428D01*
X135038095Y-79976190D01*
X134990476Y-79928571D01*
X134895238Y-79880952D01*
%TO.C,F2*%
X147416666Y-94778571D02*
X147083333Y-94778571D01*
X147083333Y-95302380D02*
X147083333Y-94302380D01*
X147559523Y-94302380D01*
X147892857Y-94397619D02*
X147940476Y-94350000D01*
X148035714Y-94302380D01*
X148273809Y-94302380D01*
X148369047Y-94350000D01*
X148416666Y-94397619D01*
X148464285Y-94492857D01*
X148464285Y-94588095D01*
X148416666Y-94730952D01*
X147845238Y-95302380D01*
X148464285Y-95302380D01*
%TO.C,L2*%
X147033333Y-87452380D02*
X146557142Y-87452380D01*
X146557142Y-86452380D01*
X147319047Y-86547619D02*
X147366666Y-86500000D01*
X147461904Y-86452380D01*
X147700000Y-86452380D01*
X147795238Y-86500000D01*
X147842857Y-86547619D01*
X147890476Y-86642857D01*
X147890476Y-86738095D01*
X147842857Y-86880952D01*
X147271428Y-87452380D01*
X147890476Y-87452380D01*
%TO.C,P1*%
X150361904Y-104952380D02*
X150361904Y-103952380D01*
X150742857Y-103952380D01*
X150838095Y-104000000D01*
X150885714Y-104047619D01*
X150933333Y-104142857D01*
X150933333Y-104285714D01*
X150885714Y-104380952D01*
X150838095Y-104428571D01*
X150742857Y-104476190D01*
X150361904Y-104476190D01*
X151885714Y-104952380D02*
X151314285Y-104952380D01*
X151600000Y-104952380D02*
X151600000Y-103952380D01*
X151504761Y-104095238D01*
X151409523Y-104190476D01*
X151314285Y-104238095D01*
%TO.C,P3*%
X138511904Y-110652380D02*
X138511904Y-109652380D01*
X138892857Y-109652380D01*
X138988095Y-109700000D01*
X139035714Y-109747619D01*
X139083333Y-109842857D01*
X139083333Y-109985714D01*
X139035714Y-110080952D01*
X138988095Y-110128571D01*
X138892857Y-110176190D01*
X138511904Y-110176190D01*
X139416666Y-109652380D02*
X140035714Y-109652380D01*
X139702380Y-110033333D01*
X139845238Y-110033333D01*
X139940476Y-110080952D01*
X139988095Y-110128571D01*
X140035714Y-110223809D01*
X140035714Y-110461904D01*
X139988095Y-110557142D01*
X139940476Y-110604761D01*
X139845238Y-110652380D01*
X139559523Y-110652380D01*
X139464285Y-110604761D01*
X139416666Y-110557142D01*
%TO.C,P4*%
X152011904Y-94702380D02*
X152011904Y-93702380D01*
X152392857Y-93702380D01*
X152488095Y-93750000D01*
X152535714Y-93797619D01*
X152583333Y-93892857D01*
X152583333Y-94035714D01*
X152535714Y-94130952D01*
X152488095Y-94178571D01*
X152392857Y-94226190D01*
X152011904Y-94226190D01*
X153440476Y-94035714D02*
X153440476Y-94702380D01*
X153202380Y-93654761D02*
X152964285Y-94369047D01*
X153583333Y-94369047D01*
%TO.C,P5*%
X146711904Y-84002380D02*
X146711904Y-83002380D01*
X147092857Y-83002380D01*
X147188095Y-83050000D01*
X147235714Y-83097619D01*
X147283333Y-83192857D01*
X147283333Y-83335714D01*
X147235714Y-83430952D01*
X147188095Y-83478571D01*
X147092857Y-83526190D01*
X146711904Y-83526190D01*
X148188095Y-83002380D02*
X147711904Y-83002380D01*
X147664285Y-83478571D01*
X147711904Y-83430952D01*
X147807142Y-83383333D01*
X148045238Y-83383333D01*
X148140476Y-83430952D01*
X148188095Y-83478571D01*
X148235714Y-83573809D01*
X148235714Y-83811904D01*
X148188095Y-83907142D01*
X148140476Y-83954761D01*
X148045238Y-84002380D01*
X147807142Y-84002380D01*
X147711904Y-83954761D01*
X147664285Y-83907142D01*
%TO.C,P6*%
X136011904Y-87802380D02*
X136011904Y-86802380D01*
X136392857Y-86802380D01*
X136488095Y-86850000D01*
X136535714Y-86897619D01*
X136583333Y-86992857D01*
X136583333Y-87135714D01*
X136535714Y-87230952D01*
X136488095Y-87278571D01*
X136392857Y-87326190D01*
X136011904Y-87326190D01*
X137440476Y-86802380D02*
X137250000Y-86802380D01*
X137154761Y-86850000D01*
X137107142Y-86897619D01*
X137011904Y-87040476D01*
X136964285Y-87230952D01*
X136964285Y-87611904D01*
X137011904Y-87707142D01*
X137059523Y-87754761D01*
X137154761Y-87802380D01*
X137345238Y-87802380D01*
X137440476Y-87754761D01*
X137488095Y-87707142D01*
X137535714Y-87611904D01*
X137535714Y-87373809D01*
X137488095Y-87278571D01*
X137440476Y-87230952D01*
X137345238Y-87183333D01*
X137154761Y-87183333D01*
X137059523Y-87230952D01*
X137011904Y-87278571D01*
X136964285Y-87373809D01*
%TO.C,R4*%
X137125000Y-96739285D02*
X136875000Y-96382142D01*
X136696428Y-96739285D02*
X136696428Y-95989285D01*
X136982142Y-95989285D01*
X137053571Y-96025000D01*
X137089285Y-96060714D01*
X137125000Y-96132142D01*
X137125000Y-96239285D01*
X137089285Y-96310714D01*
X137053571Y-96346428D01*
X136982142Y-96382142D01*
X136696428Y-96382142D01*
X137767857Y-96239285D02*
X137767857Y-96739285D01*
X137589285Y-95953571D02*
X137410714Y-96489285D01*
X137875000Y-96489285D01*
%TO.C,R7*%
X137275000Y-94889285D02*
X137025000Y-94532142D01*
X136846428Y-94889285D02*
X136846428Y-94139285D01*
X137132142Y-94139285D01*
X137203571Y-94175000D01*
X137239285Y-94210714D01*
X137275000Y-94282142D01*
X137275000Y-94389285D01*
X137239285Y-94460714D01*
X137203571Y-94496428D01*
X137132142Y-94532142D01*
X136846428Y-94532142D01*
X137525000Y-94139285D02*
X138025000Y-94139285D01*
X137703571Y-94889285D01*
%TO.C,R8*%
X137075000Y-99589285D02*
X136825000Y-99232142D01*
X136646428Y-99589285D02*
X136646428Y-98839285D01*
X136932142Y-98839285D01*
X137003571Y-98875000D01*
X137039285Y-98910714D01*
X137075000Y-98982142D01*
X137075000Y-99089285D01*
X137039285Y-99160714D01*
X137003571Y-99196428D01*
X136932142Y-99232142D01*
X136646428Y-99232142D01*
X137503571Y-99160714D02*
X137432142Y-99125000D01*
X137396428Y-99089285D01*
X137360714Y-99017857D01*
X137360714Y-98982142D01*
X137396428Y-98910714D01*
X137432142Y-98875000D01*
X137503571Y-98839285D01*
X137646428Y-98839285D01*
X137717857Y-98875000D01*
X137753571Y-98910714D01*
X137789285Y-98982142D01*
X137789285Y-99017857D01*
X137753571Y-99089285D01*
X137717857Y-99125000D01*
X137646428Y-99160714D01*
X137503571Y-99160714D01*
X137432142Y-99196428D01*
X137396428Y-99232142D01*
X137360714Y-99303571D01*
X137360714Y-99446428D01*
X137396428Y-99517857D01*
X137432142Y-99553571D01*
X137503571Y-99589285D01*
X137646428Y-99589285D01*
X137717857Y-99553571D01*
X137753571Y-99517857D01*
X137789285Y-99446428D01*
X137789285Y-99303571D01*
X137753571Y-99232142D01*
X137717857Y-99196428D01*
X137646428Y-99160714D01*
%TO.C,R12*%
X135839285Y-107232142D02*
X135482142Y-107482142D01*
X135839285Y-107660714D02*
X135089285Y-107660714D01*
X135089285Y-107375000D01*
X135125000Y-107303571D01*
X135160714Y-107267857D01*
X135232142Y-107232142D01*
X135339285Y-107232142D01*
X135410714Y-107267857D01*
X135446428Y-107303571D01*
X135482142Y-107375000D01*
X135482142Y-107660714D01*
X135839285Y-106517857D02*
X135839285Y-106946428D01*
X135839285Y-106732142D02*
X135089285Y-106732142D01*
X135196428Y-106803571D01*
X135267857Y-106875000D01*
X135303571Y-106946428D01*
X135160714Y-106232142D02*
X135125000Y-106196428D01*
X135089285Y-106125000D01*
X135089285Y-105946428D01*
X135125000Y-105875000D01*
X135160714Y-105839285D01*
X135232142Y-105803571D01*
X135303571Y-105803571D01*
X135410714Y-105839285D01*
X135839285Y-106267857D01*
X135839285Y-105803571D01*
%TO.C,R13*%
X136839285Y-107232142D02*
X136482142Y-107482142D01*
X136839285Y-107660714D02*
X136089285Y-107660714D01*
X136089285Y-107375000D01*
X136125000Y-107303571D01*
X136160714Y-107267857D01*
X136232142Y-107232142D01*
X136339285Y-107232142D01*
X136410714Y-107267857D01*
X136446428Y-107303571D01*
X136482142Y-107375000D01*
X136482142Y-107660714D01*
X136839285Y-106517857D02*
X136839285Y-106946428D01*
X136839285Y-106732142D02*
X136089285Y-106732142D01*
X136196428Y-106803571D01*
X136267857Y-106875000D01*
X136303571Y-106946428D01*
X136089285Y-106267857D02*
X136089285Y-105803571D01*
X136375000Y-106053571D01*
X136375000Y-105946428D01*
X136410714Y-105875000D01*
X136446428Y-105839285D01*
X136517857Y-105803571D01*
X136696428Y-105803571D01*
X136767857Y-105839285D01*
X136803571Y-105875000D01*
X136839285Y-105946428D01*
X136839285Y-106160714D01*
X136803571Y-106232142D01*
X136767857Y-106267857D01*
%TO.C,R26*%
X155857142Y-89502380D02*
X155523809Y-89026190D01*
X155285714Y-89502380D02*
X155285714Y-88502380D01*
X155666666Y-88502380D01*
X155761904Y-88550000D01*
X155809523Y-88597619D01*
X155857142Y-88692857D01*
X155857142Y-88835714D01*
X155809523Y-88930952D01*
X155761904Y-88978571D01*
X155666666Y-89026190D01*
X155285714Y-89026190D01*
X156238095Y-88597619D02*
X156285714Y-88550000D01*
X156380952Y-88502380D01*
X156619047Y-88502380D01*
X156714285Y-88550000D01*
X156761904Y-88597619D01*
X156809523Y-88692857D01*
X156809523Y-88788095D01*
X156761904Y-88930952D01*
X156190476Y-89502380D01*
X156809523Y-89502380D01*
X157666666Y-88502380D02*
X157476190Y-88502380D01*
X157380952Y-88550000D01*
X157333333Y-88597619D01*
X157238095Y-88740476D01*
X157190476Y-88930952D01*
X157190476Y-89311904D01*
X157238095Y-89407142D01*
X157285714Y-89454761D01*
X157380952Y-89502380D01*
X157571428Y-89502380D01*
X157666666Y-89454761D01*
X157714285Y-89407142D01*
X157761904Y-89311904D01*
X157761904Y-89073809D01*
X157714285Y-88978571D01*
X157666666Y-88930952D01*
X157571428Y-88883333D01*
X157380952Y-88883333D01*
X157285714Y-88930952D01*
X157238095Y-88978571D01*
X157190476Y-89073809D01*
%TO.C,SW1*%
X145216666Y-105304761D02*
X145359523Y-105352380D01*
X145597619Y-105352380D01*
X145692857Y-105304761D01*
X145740476Y-105257142D01*
X145788095Y-105161904D01*
X145788095Y-105066666D01*
X145740476Y-104971428D01*
X145692857Y-104923809D01*
X145597619Y-104876190D01*
X145407142Y-104828571D01*
X145311904Y-104780952D01*
X145264285Y-104733333D01*
X145216666Y-104638095D01*
X145216666Y-104542857D01*
X145264285Y-104447619D01*
X145311904Y-104400000D01*
X145407142Y-104352380D01*
X145645238Y-104352380D01*
X145788095Y-104400000D01*
X146121428Y-104352380D02*
X146359523Y-105352380D01*
X146550000Y-104638095D01*
X146740476Y-105352380D01*
X146978571Y-104352380D01*
X147883333Y-105352380D02*
X147311904Y-105352380D01*
X147597619Y-105352380D02*
X147597619Y-104352380D01*
X147502380Y-104495238D01*
X147407142Y-104590476D01*
X147311904Y-104638095D01*
%TO.C,U1*%
X141738095Y-93352380D02*
X141738095Y-94161904D01*
X141785714Y-94257142D01*
X141833333Y-94304761D01*
X141928571Y-94352380D01*
X142119047Y-94352380D01*
X142214285Y-94304761D01*
X142261904Y-94257142D01*
X142309523Y-94161904D01*
X142309523Y-93352380D01*
X143309523Y-94352380D02*
X142738095Y-94352380D01*
X143023809Y-94352380D02*
X143023809Y-93352380D01*
X142928571Y-93495238D01*
X142833333Y-93590476D01*
X142738095Y-93638095D01*
%TO.C,U2*%
X149638095Y-93952380D02*
X149638095Y-94761904D01*
X149685714Y-94857142D01*
X149733333Y-94904761D01*
X149828571Y-94952380D01*
X150019047Y-94952380D01*
X150114285Y-94904761D01*
X150161904Y-94857142D01*
X150209523Y-94761904D01*
X150209523Y-93952380D01*
X150638095Y-94047619D02*
X150685714Y-94000000D01*
X150780952Y-93952380D01*
X151019047Y-93952380D01*
X151114285Y-94000000D01*
X151161904Y-94047619D01*
X151209523Y-94142857D01*
X151209523Y-94238095D01*
X151161904Y-94380952D01*
X150590476Y-94952380D01*
X151209523Y-94952380D01*
%TD*%
M02*
