%TF.GenerationSoftware,KiCad,Pcbnew,(5.1.9)-1*%
%TF.CreationDate,2021-05-05T17:41:09+02:00*%
%TF.ProjectId,Driverino,44726976-6572-4696-9e6f-2e6b69636164,rev?*%
%TF.SameCoordinates,Original*%
%TF.FileFunction,Soldermask,Bot*%
%TF.FilePolarity,Negative*%
%FSLAX46Y46*%
G04 Gerber Fmt 4.6, Leading zero omitted, Abs format (unit mm)*
G04 Created by KiCad (PCBNEW (5.1.9)-1) date 2021-05-05 17:41:09*
%MOMM*%
%LPD*%
G01*
G04 APERTURE LIST*
%ADD10C,0.100000*%
%ADD11O,1.000000X1.000000*%
%ADD12R,1.000000X1.000000*%
%ADD13R,1.700000X1.700000*%
%ADD14O,1.700000X1.700000*%
%ADD15R,1.950000X1.950000*%
%ADD16C,1.950000*%
%ADD17C,0.540000*%
%ADD18O,1.100000X1.500000*%
%ADD19O,1.350000X1.700000*%
%ADD20O,1.300000X0.800000*%
G04 APERTURE END LIST*
D10*
%TO.C,U3*%
G36*
X138600000Y-86100000D02*
G01*
X142400000Y-86100000D01*
X142400000Y-91900000D01*
X138600000Y-91900000D01*
X138600000Y-86100000D01*
G37*
X138600000Y-86100000D02*
X142400000Y-86100000D01*
X142400000Y-91900000D01*
X138600000Y-91900000D01*
X138600000Y-86100000D01*
%TD*%
D11*
%TO.C,JP1*%
X133750000Y-104120000D03*
X133750000Y-102850000D03*
D12*
X133750000Y-101580000D03*
%TD*%
D13*
%TO.C,P2*%
X147540000Y-112480000D03*
D14*
X147540000Y-115020000D03*
X145000000Y-112480000D03*
X145000000Y-115020000D03*
X142460000Y-112480000D03*
X142460000Y-115020000D03*
%TD*%
D15*
%TO.C,P7*%
X143040000Y-79300000D03*
D16*
X140500000Y-79300000D03*
X137960000Y-79300000D03*
%TD*%
D17*
%TO.C,U3*%
X139875000Y-89000000D03*
X141125000Y-89000000D03*
X142100000Y-89000000D03*
X138900000Y-89000000D03*
X139875000Y-90350000D03*
X141125000Y-90350000D03*
X142100000Y-90350000D03*
X138900000Y-90350000D03*
X139875000Y-91600000D03*
X141125000Y-91600000D03*
X139875000Y-87650000D03*
X141125000Y-87650000D03*
X142100000Y-87650000D03*
X138900000Y-87650000D03*
X139875000Y-86400000D03*
X141125000Y-86400000D03*
%TD*%
%TO.C,C1*%
G36*
G01*
X147720000Y-107750000D02*
X147380000Y-107750000D01*
G75*
G02*
X147240000Y-107610000I0J140000D01*
G01*
X147240000Y-107330000D01*
G75*
G02*
X147380000Y-107190000I140000J0D01*
G01*
X147720000Y-107190000D01*
G75*
G02*
X147860000Y-107330000I0J-140000D01*
G01*
X147860000Y-107610000D01*
G75*
G02*
X147720000Y-107750000I-140000J0D01*
G01*
G37*
G36*
G01*
X147720000Y-108710000D02*
X147380000Y-108710000D01*
G75*
G02*
X147240000Y-108570000I0J140000D01*
G01*
X147240000Y-108290000D01*
G75*
G02*
X147380000Y-108150000I140000J0D01*
G01*
X147720000Y-108150000D01*
G75*
G02*
X147860000Y-108290000I0J-140000D01*
G01*
X147860000Y-108570000D01*
G75*
G02*
X147720000Y-108710000I-140000J0D01*
G01*
G37*
%TD*%
%TO.C,C2*%
G36*
G01*
X148670000Y-107750000D02*
X148330000Y-107750000D01*
G75*
G02*
X148190000Y-107610000I0J140000D01*
G01*
X148190000Y-107330000D01*
G75*
G02*
X148330000Y-107190000I140000J0D01*
G01*
X148670000Y-107190000D01*
G75*
G02*
X148810000Y-107330000I0J-140000D01*
G01*
X148810000Y-107610000D01*
G75*
G02*
X148670000Y-107750000I-140000J0D01*
G01*
G37*
G36*
G01*
X148670000Y-108710000D02*
X148330000Y-108710000D01*
G75*
G02*
X148190000Y-108570000I0J140000D01*
G01*
X148190000Y-108290000D01*
G75*
G02*
X148330000Y-108150000I140000J0D01*
G01*
X148670000Y-108150000D01*
G75*
G02*
X148810000Y-108290000I0J-140000D01*
G01*
X148810000Y-108570000D01*
G75*
G02*
X148670000Y-108710000I-140000J0D01*
G01*
G37*
%TD*%
%TO.C,C3*%
G36*
G01*
X136975000Y-102887500D02*
X136975000Y-102387500D01*
G75*
G02*
X137200000Y-102162500I225000J0D01*
G01*
X137650000Y-102162500D01*
G75*
G02*
X137875000Y-102387500I0J-225000D01*
G01*
X137875000Y-102887500D01*
G75*
G02*
X137650000Y-103112500I-225000J0D01*
G01*
X137200000Y-103112500D01*
G75*
G02*
X136975000Y-102887500I0J225000D01*
G01*
G37*
G36*
G01*
X135425000Y-102887500D02*
X135425000Y-102387500D01*
G75*
G02*
X135650000Y-102162500I225000J0D01*
G01*
X136100000Y-102162500D01*
G75*
G02*
X136325000Y-102387500I0J-225000D01*
G01*
X136325000Y-102887500D01*
G75*
G02*
X136100000Y-103112500I-225000J0D01*
G01*
X135650000Y-103112500D01*
G75*
G02*
X135425000Y-102887500I0J225000D01*
G01*
G37*
%TD*%
%TO.C,C4*%
G36*
G01*
X141200000Y-105600000D02*
X140700000Y-105600000D01*
G75*
G02*
X140475000Y-105375000I0J225000D01*
G01*
X140475000Y-104925000D01*
G75*
G02*
X140700000Y-104700000I225000J0D01*
G01*
X141200000Y-104700000D01*
G75*
G02*
X141425000Y-104925000I0J-225000D01*
G01*
X141425000Y-105375000D01*
G75*
G02*
X141200000Y-105600000I-225000J0D01*
G01*
G37*
G36*
G01*
X141200000Y-104050000D02*
X140700000Y-104050000D01*
G75*
G02*
X140475000Y-103825000I0J225000D01*
G01*
X140475000Y-103375000D01*
G75*
G02*
X140700000Y-103150000I225000J0D01*
G01*
X141200000Y-103150000D01*
G75*
G02*
X141425000Y-103375000I0J-225000D01*
G01*
X141425000Y-103825000D01*
G75*
G02*
X141200000Y-104050000I-225000J0D01*
G01*
G37*
%TD*%
%TO.C,C5*%
G36*
G01*
X151580000Y-98875000D02*
X151920000Y-98875000D01*
G75*
G02*
X152060000Y-99015000I0J-140000D01*
G01*
X152060000Y-99295000D01*
G75*
G02*
X151920000Y-99435000I-140000J0D01*
G01*
X151580000Y-99435000D01*
G75*
G02*
X151440000Y-99295000I0J140000D01*
G01*
X151440000Y-99015000D01*
G75*
G02*
X151580000Y-98875000I140000J0D01*
G01*
G37*
G36*
G01*
X151580000Y-99835000D02*
X151920000Y-99835000D01*
G75*
G02*
X152060000Y-99975000I0J-140000D01*
G01*
X152060000Y-100255000D01*
G75*
G02*
X151920000Y-100395000I-140000J0D01*
G01*
X151580000Y-100395000D01*
G75*
G02*
X151440000Y-100255000I0J140000D01*
G01*
X151440000Y-99975000D01*
G75*
G02*
X151580000Y-99835000I140000J0D01*
G01*
G37*
%TD*%
%TO.C,C6*%
G36*
G01*
X136515000Y-97370000D02*
X136515000Y-97030000D01*
G75*
G02*
X136655000Y-96890000I140000J0D01*
G01*
X136935000Y-96890000D01*
G75*
G02*
X137075000Y-97030000I0J-140000D01*
G01*
X137075000Y-97370000D01*
G75*
G02*
X136935000Y-97510000I-140000J0D01*
G01*
X136655000Y-97510000D01*
G75*
G02*
X136515000Y-97370000I0J140000D01*
G01*
G37*
G36*
G01*
X137475000Y-97370000D02*
X137475000Y-97030000D01*
G75*
G02*
X137615000Y-96890000I140000J0D01*
G01*
X137895000Y-96890000D01*
G75*
G02*
X138035000Y-97030000I0J-140000D01*
G01*
X138035000Y-97370000D01*
G75*
G02*
X137895000Y-97510000I-140000J0D01*
G01*
X137615000Y-97510000D01*
G75*
G02*
X137475000Y-97370000I0J140000D01*
G01*
G37*
%TD*%
%TO.C,C7*%
G36*
G01*
X152880000Y-97140000D02*
X153220000Y-97140000D01*
G75*
G02*
X153360000Y-97280000I0J-140000D01*
G01*
X153360000Y-97560000D01*
G75*
G02*
X153220000Y-97700000I-140000J0D01*
G01*
X152880000Y-97700000D01*
G75*
G02*
X152740000Y-97560000I0J140000D01*
G01*
X152740000Y-97280000D01*
G75*
G02*
X152880000Y-97140000I140000J0D01*
G01*
G37*
G36*
G01*
X152880000Y-98100000D02*
X153220000Y-98100000D01*
G75*
G02*
X153360000Y-98240000I0J-140000D01*
G01*
X153360000Y-98520000D01*
G75*
G02*
X153220000Y-98660000I-140000J0D01*
G01*
X152880000Y-98660000D01*
G75*
G02*
X152740000Y-98520000I0J140000D01*
G01*
X152740000Y-98240000D01*
G75*
G02*
X152880000Y-98100000I140000J0D01*
G01*
G37*
%TD*%
%TO.C,C9*%
G36*
G01*
X150870000Y-99435000D02*
X150530000Y-99435000D01*
G75*
G02*
X150390000Y-99295000I0J140000D01*
G01*
X150390000Y-99015000D01*
G75*
G02*
X150530000Y-98875000I140000J0D01*
G01*
X150870000Y-98875000D01*
G75*
G02*
X151010000Y-99015000I0J-140000D01*
G01*
X151010000Y-99295000D01*
G75*
G02*
X150870000Y-99435000I-140000J0D01*
G01*
G37*
G36*
G01*
X150870000Y-98475000D02*
X150530000Y-98475000D01*
G75*
G02*
X150390000Y-98335000I0J140000D01*
G01*
X150390000Y-98055000D01*
G75*
G02*
X150530000Y-97915000I140000J0D01*
G01*
X150870000Y-97915000D01*
G75*
G02*
X151010000Y-98055000I0J-140000D01*
G01*
X151010000Y-98335000D01*
G75*
G02*
X150870000Y-98475000I-140000J0D01*
G01*
G37*
%TD*%
%TO.C,C12*%
G36*
G01*
X152040000Y-95770000D02*
X152040000Y-95430000D01*
G75*
G02*
X152180000Y-95290000I140000J0D01*
G01*
X152460000Y-95290000D01*
G75*
G02*
X152600000Y-95430000I0J-140000D01*
G01*
X152600000Y-95770000D01*
G75*
G02*
X152460000Y-95910000I-140000J0D01*
G01*
X152180000Y-95910000D01*
G75*
G02*
X152040000Y-95770000I0J140000D01*
G01*
G37*
G36*
G01*
X153000000Y-95770000D02*
X153000000Y-95430000D01*
G75*
G02*
X153140000Y-95290000I140000J0D01*
G01*
X153420000Y-95290000D01*
G75*
G02*
X153560000Y-95430000I0J-140000D01*
G01*
X153560000Y-95770000D01*
G75*
G02*
X153420000Y-95910000I-140000J0D01*
G01*
X153140000Y-95910000D01*
G75*
G02*
X153000000Y-95770000I0J140000D01*
G01*
G37*
%TD*%
%TO.C,C13*%
G36*
G01*
X151111629Y-95928787D02*
X150871213Y-95688371D01*
G75*
G02*
X150871213Y-95490381I98995J98995D01*
G01*
X151069203Y-95292391D01*
G75*
G02*
X151267193Y-95292391I98995J-98995D01*
G01*
X151507609Y-95532807D01*
G75*
G02*
X151507609Y-95730797I-98995J-98995D01*
G01*
X151309619Y-95928787D01*
G75*
G02*
X151111629Y-95928787I-98995J98995D01*
G01*
G37*
G36*
G01*
X150432807Y-96607609D02*
X150192391Y-96367193D01*
G75*
G02*
X150192391Y-96169203I98995J98995D01*
G01*
X150390381Y-95971213D01*
G75*
G02*
X150588371Y-95971213I98995J-98995D01*
G01*
X150828787Y-96211629D01*
G75*
G02*
X150828787Y-96409619I-98995J-98995D01*
G01*
X150630797Y-96607609D01*
G75*
G02*
X150432807Y-96607609I-98995J98995D01*
G01*
G37*
%TD*%
%TO.C,C14*%
G36*
G01*
X137450000Y-98420000D02*
X137450000Y-98080000D01*
G75*
G02*
X137590000Y-97940000I140000J0D01*
G01*
X137870000Y-97940000D01*
G75*
G02*
X138010000Y-98080000I0J-140000D01*
G01*
X138010000Y-98420000D01*
G75*
G02*
X137870000Y-98560000I-140000J0D01*
G01*
X137590000Y-98560000D01*
G75*
G02*
X137450000Y-98420000I0J140000D01*
G01*
G37*
G36*
G01*
X136490000Y-98420000D02*
X136490000Y-98080000D01*
G75*
G02*
X136630000Y-97940000I140000J0D01*
G01*
X136910000Y-97940000D01*
G75*
G02*
X137050000Y-98080000I0J-140000D01*
G01*
X137050000Y-98420000D01*
G75*
G02*
X136910000Y-98560000I-140000J0D01*
G01*
X136630000Y-98560000D01*
G75*
G02*
X136490000Y-98420000I0J140000D01*
G01*
G37*
%TD*%
%TO.C,C15*%
G36*
G01*
X136900001Y-109800000D02*
X135599999Y-109800000D01*
G75*
G02*
X135350000Y-109550001I0J249999D01*
G01*
X135350000Y-108899999D01*
G75*
G02*
X135599999Y-108650000I249999J0D01*
G01*
X136900001Y-108650000D01*
G75*
G02*
X137150000Y-108899999I0J-249999D01*
G01*
X137150000Y-109550001D01*
G75*
G02*
X136900001Y-109800000I-249999J0D01*
G01*
G37*
G36*
G01*
X136900001Y-106850000D02*
X135599999Y-106850000D01*
G75*
G02*
X135350000Y-106600001I0J249999D01*
G01*
X135350000Y-105949999D01*
G75*
G02*
X135599999Y-105700000I249999J0D01*
G01*
X136900001Y-105700000D01*
G75*
G02*
X137150000Y-105949999I0J-249999D01*
G01*
X137150000Y-106600001D01*
G75*
G02*
X136900001Y-106850000I-249999J0D01*
G01*
G37*
%TD*%
%TO.C,C16*%
G36*
G01*
X138170000Y-106550000D02*
X137830000Y-106550000D01*
G75*
G02*
X137690000Y-106410000I0J140000D01*
G01*
X137690000Y-106130000D01*
G75*
G02*
X137830000Y-105990000I140000J0D01*
G01*
X138170000Y-105990000D01*
G75*
G02*
X138310000Y-106130000I0J-140000D01*
G01*
X138310000Y-106410000D01*
G75*
G02*
X138170000Y-106550000I-140000J0D01*
G01*
G37*
G36*
G01*
X138170000Y-107510000D02*
X137830000Y-107510000D01*
G75*
G02*
X137690000Y-107370000I0J140000D01*
G01*
X137690000Y-107090000D01*
G75*
G02*
X137830000Y-106950000I140000J0D01*
G01*
X138170000Y-106950000D01*
G75*
G02*
X138310000Y-107090000I0J-140000D01*
G01*
X138310000Y-107370000D01*
G75*
G02*
X138170000Y-107510000I-140000J0D01*
G01*
G37*
%TD*%
%TO.C,C23*%
G36*
G01*
X134510000Y-83500000D02*
X134510000Y-83000000D01*
G75*
G02*
X134735000Y-82775000I225000J0D01*
G01*
X135185000Y-82775000D01*
G75*
G02*
X135410000Y-83000000I0J-225000D01*
G01*
X135410000Y-83500000D01*
G75*
G02*
X135185000Y-83725000I-225000J0D01*
G01*
X134735000Y-83725000D01*
G75*
G02*
X134510000Y-83500000I0J225000D01*
G01*
G37*
G36*
G01*
X132960000Y-83500000D02*
X132960000Y-83000000D01*
G75*
G02*
X133185000Y-82775000I225000J0D01*
G01*
X133635000Y-82775000D01*
G75*
G02*
X133860000Y-83000000I0J-225000D01*
G01*
X133860000Y-83500000D01*
G75*
G02*
X133635000Y-83725000I-225000J0D01*
G01*
X133185000Y-83725000D01*
G75*
G02*
X132960000Y-83500000I0J225000D01*
G01*
G37*
%TD*%
%TO.C,C24*%
G36*
G01*
X135730000Y-95400000D02*
X136070000Y-95400000D01*
G75*
G02*
X136210000Y-95540000I0J-140000D01*
G01*
X136210000Y-95820000D01*
G75*
G02*
X136070000Y-95960000I-140000J0D01*
G01*
X135730000Y-95960000D01*
G75*
G02*
X135590000Y-95820000I0J140000D01*
G01*
X135590000Y-95540000D01*
G75*
G02*
X135730000Y-95400000I140000J0D01*
G01*
G37*
G36*
G01*
X135730000Y-94440000D02*
X136070000Y-94440000D01*
G75*
G02*
X136210000Y-94580000I0J-140000D01*
G01*
X136210000Y-94860000D01*
G75*
G02*
X136070000Y-95000000I-140000J0D01*
G01*
X135730000Y-95000000D01*
G75*
G02*
X135590000Y-94860000I0J140000D01*
G01*
X135590000Y-94580000D01*
G75*
G02*
X135730000Y-94440000I140000J0D01*
G01*
G37*
%TD*%
%TO.C,C25*%
G36*
G01*
X135730000Y-91940000D02*
X136070000Y-91940000D01*
G75*
G02*
X136210000Y-92080000I0J-140000D01*
G01*
X136210000Y-92360000D01*
G75*
G02*
X136070000Y-92500000I-140000J0D01*
G01*
X135730000Y-92500000D01*
G75*
G02*
X135590000Y-92360000I0J140000D01*
G01*
X135590000Y-92080000D01*
G75*
G02*
X135730000Y-91940000I140000J0D01*
G01*
G37*
G36*
G01*
X135730000Y-92900000D02*
X136070000Y-92900000D01*
G75*
G02*
X136210000Y-93040000I0J-140000D01*
G01*
X136210000Y-93320000D01*
G75*
G02*
X136070000Y-93460000I-140000J0D01*
G01*
X135730000Y-93460000D01*
G75*
G02*
X135590000Y-93320000I0J140000D01*
G01*
X135590000Y-93040000D01*
G75*
G02*
X135730000Y-92900000I140000J0D01*
G01*
G37*
%TD*%
%TO.C,C26*%
G36*
G01*
X135730000Y-90400000D02*
X136070000Y-90400000D01*
G75*
G02*
X136210000Y-90540000I0J-140000D01*
G01*
X136210000Y-90820000D01*
G75*
G02*
X136070000Y-90960000I-140000J0D01*
G01*
X135730000Y-90960000D01*
G75*
G02*
X135590000Y-90820000I0J140000D01*
G01*
X135590000Y-90540000D01*
G75*
G02*
X135730000Y-90400000I140000J0D01*
G01*
G37*
G36*
G01*
X135730000Y-89440000D02*
X136070000Y-89440000D01*
G75*
G02*
X136210000Y-89580000I0J-140000D01*
G01*
X136210000Y-89860000D01*
G75*
G02*
X136070000Y-90000000I-140000J0D01*
G01*
X135730000Y-90000000D01*
G75*
G02*
X135590000Y-89860000I0J140000D01*
G01*
X135590000Y-89580000D01*
G75*
G02*
X135730000Y-89440000I140000J0D01*
G01*
G37*
%TD*%
%TO.C,D1*%
G36*
G01*
X145352500Y-107170000D02*
X145697500Y-107170000D01*
G75*
G02*
X145845000Y-107317500I0J-147500D01*
G01*
X145845000Y-107612500D01*
G75*
G02*
X145697500Y-107760000I-147500J0D01*
G01*
X145352500Y-107760000D01*
G75*
G02*
X145205000Y-107612500I0J147500D01*
G01*
X145205000Y-107317500D01*
G75*
G02*
X145352500Y-107170000I147500J0D01*
G01*
G37*
G36*
G01*
X145352500Y-108140000D02*
X145697500Y-108140000D01*
G75*
G02*
X145845000Y-108287500I0J-147500D01*
G01*
X145845000Y-108582500D01*
G75*
G02*
X145697500Y-108730000I-147500J0D01*
G01*
X145352500Y-108730000D01*
G75*
G02*
X145205000Y-108582500I0J147500D01*
G01*
X145205000Y-108287500D01*
G75*
G02*
X145352500Y-108140000I147500J0D01*
G01*
G37*
%TD*%
%TO.C,L1*%
G36*
G01*
X139612502Y-104975000D02*
X138712498Y-104975000D01*
G75*
G02*
X138462500Y-104725002I0J249998D01*
G01*
X138462500Y-104199998D01*
G75*
G02*
X138712498Y-103950000I249998J0D01*
G01*
X139612502Y-103950000D01*
G75*
G02*
X139862500Y-104199998I0J-249998D01*
G01*
X139862500Y-104725002D01*
G75*
G02*
X139612502Y-104975000I-249998J0D01*
G01*
G37*
G36*
G01*
X139612502Y-103150000D02*
X138712498Y-103150000D01*
G75*
G02*
X138462500Y-102900002I0J249998D01*
G01*
X138462500Y-102374998D01*
G75*
G02*
X138712498Y-102125000I249998J0D01*
G01*
X139612502Y-102125000D01*
G75*
G02*
X139862500Y-102374998I0J-249998D01*
G01*
X139862500Y-102900002D01*
G75*
G02*
X139612502Y-103150000I-249998J0D01*
G01*
G37*
%TD*%
D13*
%TO.C,P1*%
X156200000Y-106250000D03*
D14*
X153660000Y-106250000D03*
X151120000Y-106250000D03*
%TD*%
D18*
%TO.C,P3*%
X133905000Y-112265000D03*
X138745000Y-112265000D03*
D19*
X133595000Y-115265000D03*
X139055000Y-115265000D03*
%TD*%
%TO.C,P4*%
G36*
G01*
X156800000Y-99050000D02*
X155900000Y-99050000D01*
G75*
G02*
X155700000Y-98850000I0J200000D01*
G01*
X155700000Y-98450000D01*
G75*
G02*
X155900000Y-98250000I200000J0D01*
G01*
X156800000Y-98250000D01*
G75*
G02*
X157000000Y-98450000I0J-200000D01*
G01*
X157000000Y-98850000D01*
G75*
G02*
X156800000Y-99050000I-200000J0D01*
G01*
G37*
D20*
X156350000Y-97400000D03*
X156350000Y-96150000D03*
%TD*%
D15*
%TO.C,P5*%
X149000000Y-79250000D03*
D16*
X146460000Y-79250000D03*
%TD*%
%TO.C,P6*%
G36*
G01*
X135050000Y-97500000D02*
X134150000Y-97500000D01*
G75*
G02*
X133950000Y-97300000I0J200000D01*
G01*
X133950000Y-96900000D01*
G75*
G02*
X134150000Y-96700000I200000J0D01*
G01*
X135050000Y-96700000D01*
G75*
G02*
X135250000Y-96900000I0J-200000D01*
G01*
X135250000Y-97300000D01*
G75*
G02*
X135050000Y-97500000I-200000J0D01*
G01*
G37*
D20*
X134600000Y-95850000D03*
X134600000Y-94600000D03*
X134600000Y-93350000D03*
X134600000Y-92100000D03*
X134600000Y-90850000D03*
X134600000Y-89600000D03*
X134600000Y-88350000D03*
%TD*%
%TO.C,R1*%
G36*
G01*
X146365000Y-107170000D02*
X146735000Y-107170000D01*
G75*
G02*
X146870000Y-107305000I0J-135000D01*
G01*
X146870000Y-107575000D01*
G75*
G02*
X146735000Y-107710000I-135000J0D01*
G01*
X146365000Y-107710000D01*
G75*
G02*
X146230000Y-107575000I0J135000D01*
G01*
X146230000Y-107305000D01*
G75*
G02*
X146365000Y-107170000I135000J0D01*
G01*
G37*
G36*
G01*
X146365000Y-108190000D02*
X146735000Y-108190000D01*
G75*
G02*
X146870000Y-108325000I0J-135000D01*
G01*
X146870000Y-108595000D01*
G75*
G02*
X146735000Y-108730000I-135000J0D01*
G01*
X146365000Y-108730000D01*
G75*
G02*
X146230000Y-108595000I0J135000D01*
G01*
X146230000Y-108325000D01*
G75*
G02*
X146365000Y-108190000I135000J0D01*
G01*
G37*
%TD*%
%TO.C,R2*%
G36*
G01*
X155210000Y-101885000D02*
X155210000Y-101515000D01*
G75*
G02*
X155345000Y-101380000I135000J0D01*
G01*
X155615000Y-101380000D01*
G75*
G02*
X155750000Y-101515000I0J-135000D01*
G01*
X155750000Y-101885000D01*
G75*
G02*
X155615000Y-102020000I-135000J0D01*
G01*
X155345000Y-102020000D01*
G75*
G02*
X155210000Y-101885000I0J135000D01*
G01*
G37*
G36*
G01*
X156230000Y-101885000D02*
X156230000Y-101515000D01*
G75*
G02*
X156365000Y-101380000I135000J0D01*
G01*
X156635000Y-101380000D01*
G75*
G02*
X156770000Y-101515000I0J-135000D01*
G01*
X156770000Y-101885000D01*
G75*
G02*
X156635000Y-102020000I-135000J0D01*
G01*
X156365000Y-102020000D01*
G75*
G02*
X156230000Y-101885000I0J135000D01*
G01*
G37*
%TD*%
%TO.C,R3*%
G36*
G01*
X155297500Y-93435000D02*
X155297500Y-93065000D01*
G75*
G02*
X155432500Y-92930000I135000J0D01*
G01*
X155702500Y-92930000D01*
G75*
G02*
X155837500Y-93065000I0J-135000D01*
G01*
X155837500Y-93435000D01*
G75*
G02*
X155702500Y-93570000I-135000J0D01*
G01*
X155432500Y-93570000D01*
G75*
G02*
X155297500Y-93435000I0J135000D01*
G01*
G37*
G36*
G01*
X156317500Y-93435000D02*
X156317500Y-93065000D01*
G75*
G02*
X156452500Y-92930000I135000J0D01*
G01*
X156722500Y-92930000D01*
G75*
G02*
X156857500Y-93065000I0J-135000D01*
G01*
X156857500Y-93435000D01*
G75*
G02*
X156722500Y-93570000I-135000J0D01*
G01*
X156452500Y-93570000D01*
G75*
G02*
X156317500Y-93435000I0J135000D01*
G01*
G37*
%TD*%
%TO.C,R11*%
G36*
G01*
X151305000Y-103760000D02*
X150935000Y-103760000D01*
G75*
G02*
X150800000Y-103625000I0J135000D01*
G01*
X150800000Y-103355000D01*
G75*
G02*
X150935000Y-103220000I135000J0D01*
G01*
X151305000Y-103220000D01*
G75*
G02*
X151440000Y-103355000I0J-135000D01*
G01*
X151440000Y-103625000D01*
G75*
G02*
X151305000Y-103760000I-135000J0D01*
G01*
G37*
G36*
G01*
X151305000Y-104780000D02*
X150935000Y-104780000D01*
G75*
G02*
X150800000Y-104645000I0J135000D01*
G01*
X150800000Y-104375000D01*
G75*
G02*
X150935000Y-104240000I135000J0D01*
G01*
X151305000Y-104240000D01*
G75*
G02*
X151440000Y-104375000I0J-135000D01*
G01*
X151440000Y-104645000D01*
G75*
G02*
X151305000Y-104780000I-135000J0D01*
G01*
G37*
%TD*%
%TO.C,R18*%
G36*
G01*
X134210000Y-78215000D02*
X134210000Y-78585000D01*
G75*
G02*
X134075000Y-78720000I-135000J0D01*
G01*
X133805000Y-78720000D01*
G75*
G02*
X133670000Y-78585000I0J135000D01*
G01*
X133670000Y-78215000D01*
G75*
G02*
X133805000Y-78080000I135000J0D01*
G01*
X134075000Y-78080000D01*
G75*
G02*
X134210000Y-78215000I0J-135000D01*
G01*
G37*
G36*
G01*
X135230000Y-78215000D02*
X135230000Y-78585000D01*
G75*
G02*
X135095000Y-78720000I-135000J0D01*
G01*
X134825000Y-78720000D01*
G75*
G02*
X134690000Y-78585000I0J135000D01*
G01*
X134690000Y-78215000D01*
G75*
G02*
X134825000Y-78080000I135000J0D01*
G01*
X135095000Y-78080000D01*
G75*
G02*
X135230000Y-78215000I0J-135000D01*
G01*
G37*
%TD*%
%TO.C,R19*%
G36*
G01*
X156267500Y-103535000D02*
X156267500Y-103165000D01*
G75*
G02*
X156402500Y-103030000I135000J0D01*
G01*
X156672500Y-103030000D01*
G75*
G02*
X156807500Y-103165000I0J-135000D01*
G01*
X156807500Y-103535000D01*
G75*
G02*
X156672500Y-103670000I-135000J0D01*
G01*
X156402500Y-103670000D01*
G75*
G02*
X156267500Y-103535000I0J135000D01*
G01*
G37*
G36*
G01*
X155247500Y-103535000D02*
X155247500Y-103165000D01*
G75*
G02*
X155382500Y-103030000I135000J0D01*
G01*
X155652500Y-103030000D01*
G75*
G02*
X155787500Y-103165000I0J-135000D01*
G01*
X155787500Y-103535000D01*
G75*
G02*
X155652500Y-103670000I-135000J0D01*
G01*
X155382500Y-103670000D01*
G75*
G02*
X155247500Y-103535000I0J135000D01*
G01*
G37*
%TD*%
%TO.C,R20*%
G36*
G01*
X155420000Y-77360000D02*
X155420000Y-76990000D01*
G75*
G02*
X155555000Y-76855000I135000J0D01*
G01*
X155825000Y-76855000D01*
G75*
G02*
X155960000Y-76990000I0J-135000D01*
G01*
X155960000Y-77360000D01*
G75*
G02*
X155825000Y-77495000I-135000J0D01*
G01*
X155555000Y-77495000D01*
G75*
G02*
X155420000Y-77360000I0J135000D01*
G01*
G37*
G36*
G01*
X156440000Y-77360000D02*
X156440000Y-76990000D01*
G75*
G02*
X156575000Y-76855000I135000J0D01*
G01*
X156845000Y-76855000D01*
G75*
G02*
X156980000Y-76990000I0J-135000D01*
G01*
X156980000Y-77360000D01*
G75*
G02*
X156845000Y-77495000I-135000J0D01*
G01*
X156575000Y-77495000D01*
G75*
G02*
X156440000Y-77360000I0J135000D01*
G01*
G37*
%TD*%
%TO.C,R21*%
G36*
G01*
X134210000Y-81215000D02*
X134210000Y-81585000D01*
G75*
G02*
X134075000Y-81720000I-135000J0D01*
G01*
X133805000Y-81720000D01*
G75*
G02*
X133670000Y-81585000I0J135000D01*
G01*
X133670000Y-81215000D01*
G75*
G02*
X133805000Y-81080000I135000J0D01*
G01*
X134075000Y-81080000D01*
G75*
G02*
X134210000Y-81215000I0J-135000D01*
G01*
G37*
G36*
G01*
X135230000Y-81215000D02*
X135230000Y-81585000D01*
G75*
G02*
X135095000Y-81720000I-135000J0D01*
G01*
X134825000Y-81720000D01*
G75*
G02*
X134690000Y-81585000I0J135000D01*
G01*
X134690000Y-81215000D01*
G75*
G02*
X134825000Y-81080000I135000J0D01*
G01*
X135095000Y-81080000D01*
G75*
G02*
X135230000Y-81215000I0J-135000D01*
G01*
G37*
%TD*%
%TO.C,R22*%
G36*
G01*
X143840000Y-92585000D02*
X143840000Y-92215000D01*
G75*
G02*
X143975000Y-92080000I135000J0D01*
G01*
X144245000Y-92080000D01*
G75*
G02*
X144380000Y-92215000I0J-135000D01*
G01*
X144380000Y-92585000D01*
G75*
G02*
X144245000Y-92720000I-135000J0D01*
G01*
X143975000Y-92720000D01*
G75*
G02*
X143840000Y-92585000I0J135000D01*
G01*
G37*
G36*
G01*
X142820000Y-92585000D02*
X142820000Y-92215000D01*
G75*
G02*
X142955000Y-92080000I135000J0D01*
G01*
X143225000Y-92080000D01*
G75*
G02*
X143360000Y-92215000I0J-135000D01*
G01*
X143360000Y-92585000D01*
G75*
G02*
X143225000Y-92720000I-135000J0D01*
G01*
X142955000Y-92720000D01*
G75*
G02*
X142820000Y-92585000I0J135000D01*
G01*
G37*
%TD*%
%TO.C,R23*%
G36*
G01*
X137740000Y-92785000D02*
X137740000Y-92415000D01*
G75*
G02*
X137875000Y-92280000I135000J0D01*
G01*
X138145000Y-92280000D01*
G75*
G02*
X138280000Y-92415000I0J-135000D01*
G01*
X138280000Y-92785000D01*
G75*
G02*
X138145000Y-92920000I-135000J0D01*
G01*
X137875000Y-92920000D01*
G75*
G02*
X137740000Y-92785000I0J135000D01*
G01*
G37*
G36*
G01*
X136720000Y-92785000D02*
X136720000Y-92415000D01*
G75*
G02*
X136855000Y-92280000I135000J0D01*
G01*
X137125000Y-92280000D01*
G75*
G02*
X137260000Y-92415000I0J-135000D01*
G01*
X137260000Y-92785000D01*
G75*
G02*
X137125000Y-92920000I-135000J0D01*
G01*
X136855000Y-92920000D01*
G75*
G02*
X136720000Y-92785000I0J135000D01*
G01*
G37*
%TD*%
%TO.C,R24*%
G36*
G01*
X136815000Y-93320000D02*
X137185000Y-93320000D01*
G75*
G02*
X137320000Y-93455000I0J-135000D01*
G01*
X137320000Y-93725000D01*
G75*
G02*
X137185000Y-93860000I-135000J0D01*
G01*
X136815000Y-93860000D01*
G75*
G02*
X136680000Y-93725000I0J135000D01*
G01*
X136680000Y-93455000D01*
G75*
G02*
X136815000Y-93320000I135000J0D01*
G01*
G37*
G36*
G01*
X136815000Y-94340000D02*
X137185000Y-94340000D01*
G75*
G02*
X137320000Y-94475000I0J-135000D01*
G01*
X137320000Y-94745000D01*
G75*
G02*
X137185000Y-94880000I-135000J0D01*
G01*
X136815000Y-94880000D01*
G75*
G02*
X136680000Y-94745000I0J135000D01*
G01*
X136680000Y-94475000D01*
G75*
G02*
X136815000Y-94340000I135000J0D01*
G01*
G37*
%TD*%
%TO.C,R25*%
G36*
G01*
X133385000Y-96080000D02*
X133015000Y-96080000D01*
G75*
G02*
X132880000Y-95945000I0J135000D01*
G01*
X132880000Y-95675000D01*
G75*
G02*
X133015000Y-95540000I135000J0D01*
G01*
X133385000Y-95540000D01*
G75*
G02*
X133520000Y-95675000I0J-135000D01*
G01*
X133520000Y-95945000D01*
G75*
G02*
X133385000Y-96080000I-135000J0D01*
G01*
G37*
G36*
G01*
X133385000Y-95060000D02*
X133015000Y-95060000D01*
G75*
G02*
X132880000Y-94925000I0J135000D01*
G01*
X132880000Y-94655000D01*
G75*
G02*
X133015000Y-94520000I135000J0D01*
G01*
X133385000Y-94520000D01*
G75*
G02*
X133520000Y-94655000I0J-135000D01*
G01*
X133520000Y-94925000D01*
G75*
G02*
X133385000Y-95060000I-135000J0D01*
G01*
G37*
%TD*%
%TO.C,R27*%
G36*
G01*
X137185000Y-90860000D02*
X136815000Y-90860000D01*
G75*
G02*
X136680000Y-90725000I0J135000D01*
G01*
X136680000Y-90455000D01*
G75*
G02*
X136815000Y-90320000I135000J0D01*
G01*
X137185000Y-90320000D01*
G75*
G02*
X137320000Y-90455000I0J-135000D01*
G01*
X137320000Y-90725000D01*
G75*
G02*
X137185000Y-90860000I-135000J0D01*
G01*
G37*
G36*
G01*
X137185000Y-91880000D02*
X136815000Y-91880000D01*
G75*
G02*
X136680000Y-91745000I0J135000D01*
G01*
X136680000Y-91475000D01*
G75*
G02*
X136815000Y-91340000I135000J0D01*
G01*
X137185000Y-91340000D01*
G75*
G02*
X137320000Y-91475000I0J-135000D01*
G01*
X137320000Y-91745000D01*
G75*
G02*
X137185000Y-91880000I-135000J0D01*
G01*
G37*
%TD*%
%TO.C,R28*%
G36*
G01*
X133385000Y-92560000D02*
X133015000Y-92560000D01*
G75*
G02*
X132880000Y-92425000I0J135000D01*
G01*
X132880000Y-92155000D01*
G75*
G02*
X133015000Y-92020000I135000J0D01*
G01*
X133385000Y-92020000D01*
G75*
G02*
X133520000Y-92155000I0J-135000D01*
G01*
X133520000Y-92425000D01*
G75*
G02*
X133385000Y-92560000I-135000J0D01*
G01*
G37*
G36*
G01*
X133385000Y-93580000D02*
X133015000Y-93580000D01*
G75*
G02*
X132880000Y-93445000I0J135000D01*
G01*
X132880000Y-93175000D01*
G75*
G02*
X133015000Y-93040000I135000J0D01*
G01*
X133385000Y-93040000D01*
G75*
G02*
X133520000Y-93175000I0J-135000D01*
G01*
X133520000Y-93445000D01*
G75*
G02*
X133385000Y-93580000I-135000J0D01*
G01*
G37*
%TD*%
%TO.C,R29*%
G36*
G01*
X136815000Y-88320000D02*
X137185000Y-88320000D01*
G75*
G02*
X137320000Y-88455000I0J-135000D01*
G01*
X137320000Y-88725000D01*
G75*
G02*
X137185000Y-88860000I-135000J0D01*
G01*
X136815000Y-88860000D01*
G75*
G02*
X136680000Y-88725000I0J135000D01*
G01*
X136680000Y-88455000D01*
G75*
G02*
X136815000Y-88320000I135000J0D01*
G01*
G37*
G36*
G01*
X136815000Y-89340000D02*
X137185000Y-89340000D01*
G75*
G02*
X137320000Y-89475000I0J-135000D01*
G01*
X137320000Y-89745000D01*
G75*
G02*
X137185000Y-89880000I-135000J0D01*
G01*
X136815000Y-89880000D01*
G75*
G02*
X136680000Y-89745000I0J135000D01*
G01*
X136680000Y-89475000D01*
G75*
G02*
X136815000Y-89340000I135000J0D01*
G01*
G37*
%TD*%
%TO.C,R30*%
G36*
G01*
X133385000Y-90060000D02*
X133015000Y-90060000D01*
G75*
G02*
X132880000Y-89925000I0J135000D01*
G01*
X132880000Y-89655000D01*
G75*
G02*
X133015000Y-89520000I135000J0D01*
G01*
X133385000Y-89520000D01*
G75*
G02*
X133520000Y-89655000I0J-135000D01*
G01*
X133520000Y-89925000D01*
G75*
G02*
X133385000Y-90060000I-135000J0D01*
G01*
G37*
G36*
G01*
X133385000Y-91080000D02*
X133015000Y-91080000D01*
G75*
G02*
X132880000Y-90945000I0J135000D01*
G01*
X132880000Y-90675000D01*
G75*
G02*
X133015000Y-90540000I135000J0D01*
G01*
X133385000Y-90540000D01*
G75*
G02*
X133520000Y-90675000I0J-135000D01*
G01*
X133520000Y-90945000D01*
G75*
G02*
X133385000Y-91080000I-135000J0D01*
G01*
G37*
%TD*%
M02*
