M48
; DRILL file {KiCad (5.1.9)-1} date 05/10/21 17:37:35
; FORMAT={-:-/ absolute / inch / decimal}
; #@! TF.CreationDate,2021-05-10T17:37:35+02:00
; #@! TF.GenerationSoftware,Kicad,Pcbnew,(5.1.9)-1
; #@! TF.FileFunction,Plated,1,2,PTH
FMAT,2
INCH
T1C0.0079
T2C0.0157
T3C0.0197
T4C0.0256
T5C0.0276
T6C0.0394
T7C0.0512
%
G90
G05
T1
X5.2136Y-3.286
X5.3937Y-3.4154
X5.4232Y-3.8681
X5.4246Y-3.8268
X5.4331Y-3.6457
X5.4429Y-3.7047
X5.4685Y-3.4508
X5.4685Y-3.5039
X5.4685Y-3.5571
X5.4788Y-3.7864
X5.4802Y-3.6805
X5.5011Y-3.7136
X5.5069Y-3.4016
X5.5069Y-3.4508
X5.5069Y-3.5039
X5.5069Y-3.5571
X5.5069Y-3.6063
X5.5561Y-3.4016
X5.5561Y-3.4508
X5.5561Y-3.5039
X5.5561Y-3.5571
X5.5561Y-3.6063
X5.5591Y-3.6969
X5.5945Y-3.4508
X5.5945Y-3.5039
X5.5945Y-3.5571
X5.6087Y-4.3169
X5.6102Y-4.0787
X5.6693Y-4.063
X5.6732Y-3.6378
X5.689Y-4.1083
X5.7087Y-4.0827
X5.7343Y-3.6781
X5.7343Y-3.7037
X5.7343Y-4.0591
X5.7539Y-4.0197
X5.7697Y-4.3169
X5.7933Y-3.8346
X5.8583Y-3.8268
X5.878Y-4.2311
X5.9037Y-3.8153
X5.9232Y-3.7933
X5.9331Y-3.8661
X5.9496Y-4.0591
X5.9528Y-3.7638
X5.9744Y-3.9037
X5.998Y-3.7638
X6.0256Y-3.8366
X6.0295Y-3.7638
X6.062Y-4.1053
X6.1246Y-3.7372
X6.1649Y-3.6713
X6.1693Y-3.0384
X6.1791Y-3.7087
T2
X5.2416Y-3.8253
X5.2539Y-3.0866
X5.2564Y-3.2047
X5.3041Y-3.8681
X5.3642Y-3.4744
X5.4783Y-4.1142
X5.4788Y-4.0408
X5.6299Y-4.1839
X5.7598Y-3.7303
X5.8012Y-4.0315
X5.8169Y-3.6904
X6.1614Y-4.0039
X6.1634Y-4.0689
T3
X5.2992Y-3.4783
X5.2992Y-3.5276
X5.2992Y-3.5768
X5.2992Y-3.626
X5.2992Y-3.6752
X5.2992Y-3.7244
X5.2992Y-3.7736
X5.2992Y-3.8228
X6.1555Y-3.7854
X6.1555Y-3.8346
X6.1555Y-3.8839
T4
X5.2425Y-3.335
X5.2657Y-3.9992
X5.2657Y-4.0492
X5.2657Y-4.0992
X5.2925Y-3.335
X5.3425Y-3.335
T6
X5.6087Y-4.4283
X5.6087Y-4.5283
X5.7087Y-4.4283
X5.7087Y-4.5283
X5.8087Y-4.4283
X5.8087Y-4.5283
X5.9496Y-4.1831
X6.0496Y-4.1831
X6.1496Y-4.1831
T7
X5.4315Y-3.122
X5.5315Y-3.122
X5.6315Y-3.122
X5.7661Y-3.1201
X5.8661Y-3.1201
T4
G00X5.2719Y-4.4278
M15
G01X5.2719Y-4.412
M16
G05
G00X5.4624Y-4.4278
M15
G01X5.4624Y-4.412
M16
G05
T5
G00X5.2596Y-4.5478
M15
G01X5.2596Y-4.5281
M16
G05
G00X5.4746Y-4.5478
M15
G01X5.4746Y-4.5281
M16
G05
T0
M30
