%TF.GenerationSoftware,KiCad,Pcbnew,(5.1.9)-1*%
%TF.CreationDate,2021-05-05T16:15:55+02:00*%
%TF.ProjectId,Driverino,44726976-6572-4696-9e6f-2e6b69636164,rev?*%
%TF.SameCoordinates,Original*%
%TF.FileFunction,Legend,Bot*%
%TF.FilePolarity,Positive*%
%FSLAX46Y46*%
G04 Gerber Fmt 4.6, Leading zero omitted, Abs format (unit mm)*
G04 Created by KiCad (PCBNEW (5.1.9)-1) date 2021-05-05 16:15:55*
%MOMM*%
%LPD*%
G01*
G04 APERTURE LIST*
%ADD10C,0.120000*%
%ADD11C,0.100000*%
%ADD12C,0.150000*%
%ADD13C,0.125000*%
G04 APERTURE END LIST*
D10*
%TO.C,C1*%
X147910000Y-108057836D02*
X147910000Y-107842164D01*
X147190000Y-108057836D02*
X147190000Y-107842164D01*
%TO.C,C2*%
X148860000Y-108057836D02*
X148860000Y-107842164D01*
X148140000Y-108057836D02*
X148140000Y-107842164D01*
%TO.C,C3*%
X136509420Y-103147500D02*
X136790580Y-103147500D01*
X136509420Y-102127500D02*
X136790580Y-102127500D01*
%TO.C,C4*%
X140440000Y-104515580D02*
X140440000Y-104234420D01*
X141460000Y-104515580D02*
X141460000Y-104234420D01*
%TO.C,C5*%
X152110000Y-99527164D02*
X152110000Y-99742836D01*
X151390000Y-99527164D02*
X151390000Y-99742836D01*
%TO.C,C6*%
X137167164Y-96840000D02*
X137382836Y-96840000D01*
X137167164Y-97560000D02*
X137382836Y-97560000D01*
%TO.C,C7*%
X153410000Y-97792164D02*
X153410000Y-98007836D01*
X152690000Y-97792164D02*
X152690000Y-98007836D01*
%TO.C,C9*%
X150340000Y-98782836D02*
X150340000Y-98567164D01*
X151060000Y-98782836D02*
X151060000Y-98567164D01*
%TO.C,C12*%
X152692164Y-95240000D02*
X152907836Y-95240000D01*
X152692164Y-95960000D02*
X152907836Y-95960000D01*
%TO.C,C13*%
X151028307Y-96280810D02*
X151180810Y-96128307D01*
X150519190Y-95771693D02*
X150671693Y-95619190D01*
%TO.C,C14*%
X137142164Y-98610000D02*
X137357836Y-98610000D01*
X137142164Y-97890000D02*
X137357836Y-97890000D01*
%TO.C,C15*%
X135340000Y-108461252D02*
X135340000Y-107038748D01*
X137160000Y-108461252D02*
X137160000Y-107038748D01*
%TO.C,C16*%
X138360000Y-106857836D02*
X138360000Y-106642164D01*
X137640000Y-106857836D02*
X137640000Y-106642164D01*
%TO.C,C23*%
X134044420Y-83760000D02*
X134325580Y-83760000D01*
X134044420Y-82740000D02*
X134325580Y-82740000D01*
%TO.C,C24*%
X135540000Y-95092164D02*
X135540000Y-95307836D01*
X136260000Y-95092164D02*
X136260000Y-95307836D01*
%TO.C,C25*%
X136260000Y-92592164D02*
X136260000Y-92807836D01*
X135540000Y-92592164D02*
X135540000Y-92807836D01*
%TO.C,C26*%
X135540000Y-90092164D02*
X135540000Y-90307836D01*
X136260000Y-90092164D02*
X136260000Y-90307836D01*
D11*
%TO.C,D1*%
X145575000Y-106860000D02*
G75*
G03*
X145575000Y-106860000I-50000J0D01*
G01*
D10*
%TO.C,L1*%
X138427500Y-103777064D02*
X138427500Y-103322936D01*
X139897500Y-103777064D02*
X139897500Y-103322936D01*
%TO.C,R1*%
X146930000Y-107796359D02*
X146930000Y-108103641D01*
X146170000Y-107796359D02*
X146170000Y-108103641D01*
%TO.C,R2*%
X155836359Y-101320000D02*
X156143641Y-101320000D01*
X155836359Y-102080000D02*
X156143641Y-102080000D01*
%TO.C,R3*%
X155923859Y-92870000D02*
X156231141Y-92870000D01*
X155923859Y-93630000D02*
X156231141Y-93630000D01*
%TO.C,R11*%
X151500000Y-104153641D02*
X151500000Y-103846359D01*
X150740000Y-104153641D02*
X150740000Y-103846359D01*
%TO.C,R18*%
X134603641Y-78020000D02*
X134296359Y-78020000D01*
X134603641Y-78780000D02*
X134296359Y-78780000D01*
%TO.C,R19*%
X155873859Y-103730000D02*
X156181141Y-103730000D01*
X155873859Y-102970000D02*
X156181141Y-102970000D01*
%TO.C,R20*%
X156046359Y-76795000D02*
X156353641Y-76795000D01*
X156046359Y-77555000D02*
X156353641Y-77555000D01*
%TO.C,R21*%
X134603641Y-81020000D02*
X134296359Y-81020000D01*
X134603641Y-81780000D02*
X134296359Y-81780000D01*
%TO.C,R22*%
X143446359Y-92780000D02*
X143753641Y-92780000D01*
X143446359Y-92020000D02*
X143753641Y-92020000D01*
%TO.C,R23*%
X137346359Y-92980000D02*
X137653641Y-92980000D01*
X137346359Y-92220000D02*
X137653641Y-92220000D01*
%TO.C,R24*%
X137380000Y-93946359D02*
X137380000Y-94253641D01*
X136620000Y-93946359D02*
X136620000Y-94253641D01*
%TO.C,R25*%
X132820000Y-95453641D02*
X132820000Y-95146359D01*
X133580000Y-95453641D02*
X133580000Y-95146359D01*
%TO.C,R27*%
X137380000Y-91253641D02*
X137380000Y-90946359D01*
X136620000Y-91253641D02*
X136620000Y-90946359D01*
%TO.C,R28*%
X133580000Y-92953641D02*
X133580000Y-92646359D01*
X132820000Y-92953641D02*
X132820000Y-92646359D01*
%TO.C,R29*%
X137380000Y-88946359D02*
X137380000Y-89253641D01*
X136620000Y-88946359D02*
X136620000Y-89253641D01*
%TO.C,R30*%
X133580000Y-90453641D02*
X133580000Y-90146359D01*
X132820000Y-90453641D02*
X132820000Y-90146359D01*
%TO.C,C1*%
D12*
X147725000Y-109567857D02*
X147760714Y-109603571D01*
X147867857Y-109639285D01*
X147939285Y-109639285D01*
X148046428Y-109603571D01*
X148117857Y-109532142D01*
X148153571Y-109460714D01*
X148189285Y-109317857D01*
X148189285Y-109210714D01*
X148153571Y-109067857D01*
X148117857Y-108996428D01*
X148046428Y-108925000D01*
X147939285Y-108889285D01*
X147867857Y-108889285D01*
X147760714Y-108925000D01*
X147725000Y-108960714D01*
X147010714Y-109639285D02*
X147439285Y-109639285D01*
X147225000Y-109639285D02*
X147225000Y-108889285D01*
X147296428Y-108996428D01*
X147367857Y-109067857D01*
X147439285Y-109103571D01*
%TO.C,C2*%
X148625000Y-106867857D02*
X148660714Y-106903571D01*
X148767857Y-106939285D01*
X148839285Y-106939285D01*
X148946428Y-106903571D01*
X149017857Y-106832142D01*
X149053571Y-106760714D01*
X149089285Y-106617857D01*
X149089285Y-106510714D01*
X149053571Y-106367857D01*
X149017857Y-106296428D01*
X148946428Y-106225000D01*
X148839285Y-106189285D01*
X148767857Y-106189285D01*
X148660714Y-106225000D01*
X148625000Y-106260714D01*
X148339285Y-106260714D02*
X148303571Y-106225000D01*
X148232142Y-106189285D01*
X148053571Y-106189285D01*
X147982142Y-106225000D01*
X147946428Y-106260714D01*
X147910714Y-106332142D01*
X147910714Y-106403571D01*
X147946428Y-106510714D01*
X148375000Y-106939285D01*
X147910714Y-106939285D01*
%TO.C,C3*%
X136826666Y-101577142D02*
X136874285Y-101624761D01*
X137017142Y-101672380D01*
X137112380Y-101672380D01*
X137255238Y-101624761D01*
X137350476Y-101529523D01*
X137398095Y-101434285D01*
X137445714Y-101243809D01*
X137445714Y-101100952D01*
X137398095Y-100910476D01*
X137350476Y-100815238D01*
X137255238Y-100720000D01*
X137112380Y-100672380D01*
X137017142Y-100672380D01*
X136874285Y-100720000D01*
X136826666Y-100767619D01*
X136493333Y-100672380D02*
X135874285Y-100672380D01*
X136207619Y-101053333D01*
X136064761Y-101053333D01*
X135969523Y-101100952D01*
X135921904Y-101148571D01*
X135874285Y-101243809D01*
X135874285Y-101481904D01*
X135921904Y-101577142D01*
X135969523Y-101624761D01*
X136064761Y-101672380D01*
X136350476Y-101672380D01*
X136445714Y-101624761D01*
X136493333Y-101577142D01*
%TO.C,C4*%
X141116666Y-102557142D02*
X141164285Y-102604761D01*
X141307142Y-102652380D01*
X141402380Y-102652380D01*
X141545238Y-102604761D01*
X141640476Y-102509523D01*
X141688095Y-102414285D01*
X141735714Y-102223809D01*
X141735714Y-102080952D01*
X141688095Y-101890476D01*
X141640476Y-101795238D01*
X141545238Y-101700000D01*
X141402380Y-101652380D01*
X141307142Y-101652380D01*
X141164285Y-101700000D01*
X141116666Y-101747619D01*
X140259523Y-101985714D02*
X140259523Y-102652380D01*
X140497619Y-101604761D02*
X140735714Y-102319047D01*
X140116666Y-102319047D01*
%TO.C,C5*%
X153325000Y-99902857D02*
X153360714Y-99938571D01*
X153467857Y-99974285D01*
X153539285Y-99974285D01*
X153646428Y-99938571D01*
X153717857Y-99867142D01*
X153753571Y-99795714D01*
X153789285Y-99652857D01*
X153789285Y-99545714D01*
X153753571Y-99402857D01*
X153717857Y-99331428D01*
X153646428Y-99260000D01*
X153539285Y-99224285D01*
X153467857Y-99224285D01*
X153360714Y-99260000D01*
X153325000Y-99295714D01*
X152646428Y-99224285D02*
X153003571Y-99224285D01*
X153039285Y-99581428D01*
X153003571Y-99545714D01*
X152932142Y-99510000D01*
X152753571Y-99510000D01*
X152682142Y-99545714D01*
X152646428Y-99581428D01*
X152610714Y-99652857D01*
X152610714Y-99831428D01*
X152646428Y-99902857D01*
X152682142Y-99938571D01*
X152753571Y-99974285D01*
X152932142Y-99974285D01*
X153003571Y-99938571D01*
X153039285Y-99902857D01*
%TO.C,C6*%
X139375000Y-97442857D02*
X139410714Y-97478571D01*
X139517857Y-97514285D01*
X139589285Y-97514285D01*
X139696428Y-97478571D01*
X139767857Y-97407142D01*
X139803571Y-97335714D01*
X139839285Y-97192857D01*
X139839285Y-97085714D01*
X139803571Y-96942857D01*
X139767857Y-96871428D01*
X139696428Y-96800000D01*
X139589285Y-96764285D01*
X139517857Y-96764285D01*
X139410714Y-96800000D01*
X139375000Y-96835714D01*
X138732142Y-96764285D02*
X138875000Y-96764285D01*
X138946428Y-96800000D01*
X138982142Y-96835714D01*
X139053571Y-96942857D01*
X139089285Y-97085714D01*
X139089285Y-97371428D01*
X139053571Y-97442857D01*
X139017857Y-97478571D01*
X138946428Y-97514285D01*
X138803571Y-97514285D01*
X138732142Y-97478571D01*
X138696428Y-97442857D01*
X138660714Y-97371428D01*
X138660714Y-97192857D01*
X138696428Y-97121428D01*
X138732142Y-97085714D01*
X138803571Y-97050000D01*
X138946428Y-97050000D01*
X139017857Y-97085714D01*
X139053571Y-97121428D01*
X139089285Y-97192857D01*
%TO.C,C7*%
X154625000Y-98167857D02*
X154660714Y-98203571D01*
X154767857Y-98239285D01*
X154839285Y-98239285D01*
X154946428Y-98203571D01*
X155017857Y-98132142D01*
X155053571Y-98060714D01*
X155089285Y-97917857D01*
X155089285Y-97810714D01*
X155053571Y-97667857D01*
X155017857Y-97596428D01*
X154946428Y-97525000D01*
X154839285Y-97489285D01*
X154767857Y-97489285D01*
X154660714Y-97525000D01*
X154625000Y-97560714D01*
X154375000Y-97489285D02*
X153875000Y-97489285D01*
X154196428Y-98239285D01*
%TO.C,C9*%
X149475000Y-98942857D02*
X149510714Y-98978571D01*
X149617857Y-99014285D01*
X149689285Y-99014285D01*
X149796428Y-98978571D01*
X149867857Y-98907142D01*
X149903571Y-98835714D01*
X149939285Y-98692857D01*
X149939285Y-98585714D01*
X149903571Y-98442857D01*
X149867857Y-98371428D01*
X149796428Y-98300000D01*
X149689285Y-98264285D01*
X149617857Y-98264285D01*
X149510714Y-98300000D01*
X149475000Y-98335714D01*
X149117857Y-99014285D02*
X148975000Y-99014285D01*
X148903571Y-98978571D01*
X148867857Y-98942857D01*
X148796428Y-98835714D01*
X148760714Y-98692857D01*
X148760714Y-98407142D01*
X148796428Y-98335714D01*
X148832142Y-98300000D01*
X148903571Y-98264285D01*
X149046428Y-98264285D01*
X149117857Y-98300000D01*
X149153571Y-98335714D01*
X149189285Y-98407142D01*
X149189285Y-98585714D01*
X149153571Y-98657142D01*
X149117857Y-98692857D01*
X149046428Y-98728571D01*
X148903571Y-98728571D01*
X148832142Y-98692857D01*
X148796428Y-98657142D01*
X148760714Y-98585714D01*
%TO.C,C12*%
X153282142Y-94767857D02*
X153317857Y-94803571D01*
X153425000Y-94839285D01*
X153496428Y-94839285D01*
X153603571Y-94803571D01*
X153675000Y-94732142D01*
X153710714Y-94660714D01*
X153746428Y-94517857D01*
X153746428Y-94410714D01*
X153710714Y-94267857D01*
X153675000Y-94196428D01*
X153603571Y-94125000D01*
X153496428Y-94089285D01*
X153425000Y-94089285D01*
X153317857Y-94125000D01*
X153282142Y-94160714D01*
X152567857Y-94839285D02*
X152996428Y-94839285D01*
X152782142Y-94839285D02*
X152782142Y-94089285D01*
X152853571Y-94196428D01*
X152925000Y-94267857D01*
X152996428Y-94303571D01*
X152282142Y-94160714D02*
X152246428Y-94125000D01*
X152175000Y-94089285D01*
X151996428Y-94089285D01*
X151925000Y-94125000D01*
X151889285Y-94160714D01*
X151853571Y-94232142D01*
X151853571Y-94303571D01*
X151889285Y-94410714D01*
X152317857Y-94839285D01*
X151853571Y-94839285D01*
%TO.C,C13*%
X150630329Y-94998477D02*
X150680836Y-94998477D01*
X150781851Y-94947969D01*
X150832359Y-94897461D01*
X150882867Y-94796446D01*
X150882867Y-94695431D01*
X150857613Y-94619669D01*
X150781851Y-94493400D01*
X150706090Y-94417639D01*
X150579821Y-94341877D01*
X150504060Y-94316624D01*
X150403044Y-94316624D01*
X150302029Y-94367131D01*
X150251521Y-94417639D01*
X150201014Y-94518654D01*
X150201014Y-94569162D01*
X150175760Y-95554061D02*
X150478806Y-95251015D01*
X150327283Y-95402538D02*
X149796953Y-94872208D01*
X149923222Y-94897461D01*
X150024237Y-94897461D01*
X150099999Y-94872208D01*
X149468653Y-95200507D02*
X149140354Y-95528807D01*
X149519161Y-95554061D01*
X149443399Y-95629822D01*
X149418146Y-95705583D01*
X149418146Y-95756091D01*
X149443399Y-95831852D01*
X149569668Y-95958122D01*
X149645430Y-95983375D01*
X149695937Y-95983375D01*
X149771699Y-95958122D01*
X149923222Y-95806599D01*
X149948476Y-95730837D01*
X149948476Y-95680330D01*
%TO.C,C14*%
X139982142Y-98517857D02*
X140017857Y-98553571D01*
X140125000Y-98589285D01*
X140196428Y-98589285D01*
X140303571Y-98553571D01*
X140375000Y-98482142D01*
X140410714Y-98410714D01*
X140446428Y-98267857D01*
X140446428Y-98160714D01*
X140410714Y-98017857D01*
X140375000Y-97946428D01*
X140303571Y-97875000D01*
X140196428Y-97839285D01*
X140125000Y-97839285D01*
X140017857Y-97875000D01*
X139982142Y-97910714D01*
X139267857Y-98589285D02*
X139696428Y-98589285D01*
X139482142Y-98589285D02*
X139482142Y-97839285D01*
X139553571Y-97946428D01*
X139625000Y-98017857D01*
X139696428Y-98053571D01*
X138625000Y-98089285D02*
X138625000Y-98589285D01*
X138803571Y-97803571D02*
X138982142Y-98339285D01*
X138517857Y-98339285D01*
%TO.C,C15*%
X136892857Y-105107142D02*
X136940476Y-105154761D01*
X137083333Y-105202380D01*
X137178571Y-105202380D01*
X137321428Y-105154761D01*
X137416666Y-105059523D01*
X137464285Y-104964285D01*
X137511904Y-104773809D01*
X137511904Y-104630952D01*
X137464285Y-104440476D01*
X137416666Y-104345238D01*
X137321428Y-104250000D01*
X137178571Y-104202380D01*
X137083333Y-104202380D01*
X136940476Y-104250000D01*
X136892857Y-104297619D01*
X135940476Y-105202380D02*
X136511904Y-105202380D01*
X136226190Y-105202380D02*
X136226190Y-104202380D01*
X136321428Y-104345238D01*
X136416666Y-104440476D01*
X136511904Y-104488095D01*
X135035714Y-104202380D02*
X135511904Y-104202380D01*
X135559523Y-104678571D01*
X135511904Y-104630952D01*
X135416666Y-104583333D01*
X135178571Y-104583333D01*
X135083333Y-104630952D01*
X135035714Y-104678571D01*
X134988095Y-104773809D01*
X134988095Y-105011904D01*
X135035714Y-105107142D01*
X135083333Y-105154761D01*
X135178571Y-105202380D01*
X135416666Y-105202380D01*
X135511904Y-105154761D01*
X135559523Y-105107142D01*
%TO.C,C16*%
X140542857Y-107107142D02*
X140590476Y-107154761D01*
X140733333Y-107202380D01*
X140828571Y-107202380D01*
X140971428Y-107154761D01*
X141066666Y-107059523D01*
X141114285Y-106964285D01*
X141161904Y-106773809D01*
X141161904Y-106630952D01*
X141114285Y-106440476D01*
X141066666Y-106345238D01*
X140971428Y-106250000D01*
X140828571Y-106202380D01*
X140733333Y-106202380D01*
X140590476Y-106250000D01*
X140542857Y-106297619D01*
X139590476Y-107202380D02*
X140161904Y-107202380D01*
X139876190Y-107202380D02*
X139876190Y-106202380D01*
X139971428Y-106345238D01*
X140066666Y-106440476D01*
X140161904Y-106488095D01*
X138733333Y-106202380D02*
X138923809Y-106202380D01*
X139019047Y-106250000D01*
X139066666Y-106297619D01*
X139161904Y-106440476D01*
X139209523Y-106630952D01*
X139209523Y-107011904D01*
X139161904Y-107107142D01*
X139114285Y-107154761D01*
X139019047Y-107202380D01*
X138828571Y-107202380D01*
X138733333Y-107154761D01*
X138685714Y-107107142D01*
X138638095Y-107011904D01*
X138638095Y-106773809D01*
X138685714Y-106678571D01*
X138733333Y-106630952D01*
X138828571Y-106583333D01*
X139019047Y-106583333D01*
X139114285Y-106630952D01*
X139161904Y-106678571D01*
X139209523Y-106773809D01*
%TO.C,C23*%
X137827857Y-83607142D02*
X137875476Y-83654761D01*
X138018333Y-83702380D01*
X138113571Y-83702380D01*
X138256428Y-83654761D01*
X138351666Y-83559523D01*
X138399285Y-83464285D01*
X138446904Y-83273809D01*
X138446904Y-83130952D01*
X138399285Y-82940476D01*
X138351666Y-82845238D01*
X138256428Y-82750000D01*
X138113571Y-82702380D01*
X138018333Y-82702380D01*
X137875476Y-82750000D01*
X137827857Y-82797619D01*
X137446904Y-82797619D02*
X137399285Y-82750000D01*
X137304047Y-82702380D01*
X137065952Y-82702380D01*
X136970714Y-82750000D01*
X136923095Y-82797619D01*
X136875476Y-82892857D01*
X136875476Y-82988095D01*
X136923095Y-83130952D01*
X137494523Y-83702380D01*
X136875476Y-83702380D01*
X136542142Y-82702380D02*
X135923095Y-82702380D01*
X136256428Y-83083333D01*
X136113571Y-83083333D01*
X136018333Y-83130952D01*
X135970714Y-83178571D01*
X135923095Y-83273809D01*
X135923095Y-83511904D01*
X135970714Y-83607142D01*
X136018333Y-83654761D01*
X136113571Y-83702380D01*
X136399285Y-83702380D01*
X136494523Y-83654761D01*
X136542142Y-83607142D01*
%TO.C,C24*%
X137982142Y-96017857D02*
X138017857Y-96053571D01*
X138125000Y-96089285D01*
X138196428Y-96089285D01*
X138303571Y-96053571D01*
X138375000Y-95982142D01*
X138410714Y-95910714D01*
X138446428Y-95767857D01*
X138446428Y-95660714D01*
X138410714Y-95517857D01*
X138375000Y-95446428D01*
X138303571Y-95375000D01*
X138196428Y-95339285D01*
X138125000Y-95339285D01*
X138017857Y-95375000D01*
X137982142Y-95410714D01*
X137696428Y-95410714D02*
X137660714Y-95375000D01*
X137589285Y-95339285D01*
X137410714Y-95339285D01*
X137339285Y-95375000D01*
X137303571Y-95410714D01*
X137267857Y-95482142D01*
X137267857Y-95553571D01*
X137303571Y-95660714D01*
X137732142Y-96089285D01*
X137267857Y-96089285D01*
X136625000Y-95589285D02*
X136625000Y-96089285D01*
X136803571Y-95303571D02*
X136982142Y-95839285D01*
X136517857Y-95839285D01*
%TO.C,C25*%
X139717857Y-92417857D02*
X139753571Y-92382142D01*
X139789285Y-92275000D01*
X139789285Y-92203571D01*
X139753571Y-92096428D01*
X139682142Y-92025000D01*
X139610714Y-91989285D01*
X139467857Y-91953571D01*
X139360714Y-91953571D01*
X139217857Y-91989285D01*
X139146428Y-92025000D01*
X139075000Y-92096428D01*
X139039285Y-92203571D01*
X139039285Y-92275000D01*
X139075000Y-92382142D01*
X139110714Y-92417857D01*
X139110714Y-92703571D02*
X139075000Y-92739285D01*
X139039285Y-92810714D01*
X139039285Y-92989285D01*
X139075000Y-93060714D01*
X139110714Y-93096428D01*
X139182142Y-93132142D01*
X139253571Y-93132142D01*
X139360714Y-93096428D01*
X139789285Y-92667857D01*
X139789285Y-93132142D01*
X139039285Y-93810714D02*
X139039285Y-93453571D01*
X139396428Y-93417857D01*
X139360714Y-93453571D01*
X139325000Y-93525000D01*
X139325000Y-93703571D01*
X139360714Y-93775000D01*
X139396428Y-93810714D01*
X139467857Y-93846428D01*
X139646428Y-93846428D01*
X139717857Y-93810714D01*
X139753571Y-93775000D01*
X139789285Y-93703571D01*
X139789285Y-93525000D01*
X139753571Y-93453571D01*
X139717857Y-93417857D01*
%TO.C,C26*%
X136167857Y-87767857D02*
X136203571Y-87732142D01*
X136239285Y-87625000D01*
X136239285Y-87553571D01*
X136203571Y-87446428D01*
X136132142Y-87375000D01*
X136060714Y-87339285D01*
X135917857Y-87303571D01*
X135810714Y-87303571D01*
X135667857Y-87339285D01*
X135596428Y-87375000D01*
X135525000Y-87446428D01*
X135489285Y-87553571D01*
X135489285Y-87625000D01*
X135525000Y-87732142D01*
X135560714Y-87767857D01*
X135560714Y-88053571D02*
X135525000Y-88089285D01*
X135489285Y-88160714D01*
X135489285Y-88339285D01*
X135525000Y-88410714D01*
X135560714Y-88446428D01*
X135632142Y-88482142D01*
X135703571Y-88482142D01*
X135810714Y-88446428D01*
X136239285Y-88017857D01*
X136239285Y-88482142D01*
X135489285Y-89125000D02*
X135489285Y-88982142D01*
X135525000Y-88910714D01*
X135560714Y-88875000D01*
X135667857Y-88803571D01*
X135810714Y-88767857D01*
X136096428Y-88767857D01*
X136167857Y-88803571D01*
X136203571Y-88839285D01*
X136239285Y-88910714D01*
X136239285Y-89053571D01*
X136203571Y-89125000D01*
X136167857Y-89160714D01*
X136096428Y-89196428D01*
X135917857Y-89196428D01*
X135846428Y-89160714D01*
X135810714Y-89125000D01*
X135775000Y-89053571D01*
X135775000Y-88910714D01*
X135810714Y-88839285D01*
X135846428Y-88803571D01*
X135917857Y-88767857D01*
%TO.C,D1*%
X146053571Y-109639285D02*
X146053571Y-108889285D01*
X145875000Y-108889285D01*
X145767857Y-108925000D01*
X145696428Y-108996428D01*
X145660714Y-109067857D01*
X145625000Y-109210714D01*
X145625000Y-109317857D01*
X145660714Y-109460714D01*
X145696428Y-109532142D01*
X145767857Y-109603571D01*
X145875000Y-109639285D01*
X146053571Y-109639285D01*
X144910714Y-109639285D02*
X145339285Y-109639285D01*
X145125000Y-109639285D02*
X145125000Y-108889285D01*
X145196428Y-108996428D01*
X145267857Y-109067857D01*
X145339285Y-109103571D01*
%TO.C,L1*%
X139326666Y-101582380D02*
X139802857Y-101582380D01*
X139802857Y-100582380D01*
X138469523Y-101582380D02*
X139040952Y-101582380D01*
X138755238Y-101582380D02*
X138755238Y-100582380D01*
X138850476Y-100725238D01*
X138945714Y-100820476D01*
X139040952Y-100868095D01*
%TO.C,R1*%
X146675000Y-106889285D02*
X146925000Y-106532142D01*
X147103571Y-106889285D02*
X147103571Y-106139285D01*
X146817857Y-106139285D01*
X146746428Y-106175000D01*
X146710714Y-106210714D01*
X146675000Y-106282142D01*
X146675000Y-106389285D01*
X146710714Y-106460714D01*
X146746428Y-106496428D01*
X146817857Y-106532142D01*
X147103571Y-106532142D01*
X145960714Y-106889285D02*
X146389285Y-106889285D01*
X146175000Y-106889285D02*
X146175000Y-106139285D01*
X146246428Y-106246428D01*
X146317857Y-106317857D01*
X146389285Y-106353571D01*
%TO.C,R2*%
X154425000Y-102039285D02*
X154675000Y-101682142D01*
X154853571Y-102039285D02*
X154853571Y-101289285D01*
X154567857Y-101289285D01*
X154496428Y-101325000D01*
X154460714Y-101360714D01*
X154425000Y-101432142D01*
X154425000Y-101539285D01*
X154460714Y-101610714D01*
X154496428Y-101646428D01*
X154567857Y-101682142D01*
X154853571Y-101682142D01*
X154139285Y-101360714D02*
X154103571Y-101325000D01*
X154032142Y-101289285D01*
X153853571Y-101289285D01*
X153782142Y-101325000D01*
X153746428Y-101360714D01*
X153710714Y-101432142D01*
X153710714Y-101503571D01*
X153746428Y-101610714D01*
X154175000Y-102039285D01*
X153710714Y-102039285D01*
%TO.C,R3*%
X156175000Y-92639285D02*
X156425000Y-92282142D01*
X156603571Y-92639285D02*
X156603571Y-91889285D01*
X156317857Y-91889285D01*
X156246428Y-91925000D01*
X156210714Y-91960714D01*
X156175000Y-92032142D01*
X156175000Y-92139285D01*
X156210714Y-92210714D01*
X156246428Y-92246428D01*
X156317857Y-92282142D01*
X156603571Y-92282142D01*
X155925000Y-91889285D02*
X155460714Y-91889285D01*
X155710714Y-92175000D01*
X155603571Y-92175000D01*
X155532142Y-92210714D01*
X155496428Y-92246428D01*
X155460714Y-92317857D01*
X155460714Y-92496428D01*
X155496428Y-92567857D01*
X155532142Y-92603571D01*
X155603571Y-92639285D01*
X155817857Y-92639285D01*
X155889285Y-92603571D01*
X155925000Y-92567857D01*
%TO.C,R11*%
X149782142Y-104339285D02*
X150032142Y-103982142D01*
X150210714Y-104339285D02*
X150210714Y-103589285D01*
X149925000Y-103589285D01*
X149853571Y-103625000D01*
X149817857Y-103660714D01*
X149782142Y-103732142D01*
X149782142Y-103839285D01*
X149817857Y-103910714D01*
X149853571Y-103946428D01*
X149925000Y-103982142D01*
X150210714Y-103982142D01*
X149067857Y-104339285D02*
X149496428Y-104339285D01*
X149282142Y-104339285D02*
X149282142Y-103589285D01*
X149353571Y-103696428D01*
X149425000Y-103767857D01*
X149496428Y-103803571D01*
X148353571Y-104339285D02*
X148782142Y-104339285D01*
X148567857Y-104339285D02*
X148567857Y-103589285D01*
X148639285Y-103696428D01*
X148710714Y-103767857D01*
X148782142Y-103803571D01*
%TO.C,R18*%
X135142857Y-77702380D02*
X135476190Y-77226190D01*
X135714285Y-77702380D02*
X135714285Y-76702380D01*
X135333333Y-76702380D01*
X135238095Y-76750000D01*
X135190476Y-76797619D01*
X135142857Y-76892857D01*
X135142857Y-77035714D01*
X135190476Y-77130952D01*
X135238095Y-77178571D01*
X135333333Y-77226190D01*
X135714285Y-77226190D01*
X134190476Y-77702380D02*
X134761904Y-77702380D01*
X134476190Y-77702380D02*
X134476190Y-76702380D01*
X134571428Y-76845238D01*
X134666666Y-76940476D01*
X134761904Y-76988095D01*
X133619047Y-77130952D02*
X133714285Y-77083333D01*
X133761904Y-77035714D01*
X133809523Y-76940476D01*
X133809523Y-76892857D01*
X133761904Y-76797619D01*
X133714285Y-76750000D01*
X133619047Y-76702380D01*
X133428571Y-76702380D01*
X133333333Y-76750000D01*
X133285714Y-76797619D01*
X133238095Y-76892857D01*
X133238095Y-76940476D01*
X133285714Y-77035714D01*
X133333333Y-77083333D01*
X133428571Y-77130952D01*
X133619047Y-77130952D01*
X133714285Y-77178571D01*
X133761904Y-77226190D01*
X133809523Y-77321428D01*
X133809523Y-77511904D01*
X133761904Y-77607142D01*
X133714285Y-77654761D01*
X133619047Y-77702380D01*
X133428571Y-77702380D01*
X133333333Y-77654761D01*
X133285714Y-77607142D01*
X133238095Y-77511904D01*
X133238095Y-77321428D01*
X133285714Y-77226190D01*
X133333333Y-77178571D01*
X133428571Y-77130952D01*
%TO.C,R19*%
X154432142Y-103689285D02*
X154682142Y-103332142D01*
X154860714Y-103689285D02*
X154860714Y-102939285D01*
X154575000Y-102939285D01*
X154503571Y-102975000D01*
X154467857Y-103010714D01*
X154432142Y-103082142D01*
X154432142Y-103189285D01*
X154467857Y-103260714D01*
X154503571Y-103296428D01*
X154575000Y-103332142D01*
X154860714Y-103332142D01*
X153717857Y-103689285D02*
X154146428Y-103689285D01*
X153932142Y-103689285D02*
X153932142Y-102939285D01*
X154003571Y-103046428D01*
X154075000Y-103117857D01*
X154146428Y-103153571D01*
X153360714Y-103689285D02*
X153217857Y-103689285D01*
X153146428Y-103653571D01*
X153110714Y-103617857D01*
X153039285Y-103510714D01*
X153003571Y-103367857D01*
X153003571Y-103082142D01*
X153039285Y-103010714D01*
X153075000Y-102975000D01*
X153146428Y-102939285D01*
X153289285Y-102939285D01*
X153360714Y-102975000D01*
X153396428Y-103010714D01*
X153432142Y-103082142D01*
X153432142Y-103260714D01*
X153396428Y-103332142D01*
X153360714Y-103367857D01*
X153289285Y-103403571D01*
X153146428Y-103403571D01*
X153075000Y-103367857D01*
X153039285Y-103332142D01*
X153003571Y-103260714D01*
%TO.C,R20*%
X154582142Y-77514285D02*
X154832142Y-77157142D01*
X155010714Y-77514285D02*
X155010714Y-76764285D01*
X154725000Y-76764285D01*
X154653571Y-76800000D01*
X154617857Y-76835714D01*
X154582142Y-76907142D01*
X154582142Y-77014285D01*
X154617857Y-77085714D01*
X154653571Y-77121428D01*
X154725000Y-77157142D01*
X155010714Y-77157142D01*
X154296428Y-76835714D02*
X154260714Y-76800000D01*
X154189285Y-76764285D01*
X154010714Y-76764285D01*
X153939285Y-76800000D01*
X153903571Y-76835714D01*
X153867857Y-76907142D01*
X153867857Y-76978571D01*
X153903571Y-77085714D01*
X154332142Y-77514285D01*
X153867857Y-77514285D01*
X153403571Y-76764285D02*
X153332142Y-76764285D01*
X153260714Y-76800000D01*
X153225000Y-76835714D01*
X153189285Y-76907142D01*
X153153571Y-77050000D01*
X153153571Y-77228571D01*
X153189285Y-77371428D01*
X153225000Y-77442857D01*
X153260714Y-77478571D01*
X153332142Y-77514285D01*
X153403571Y-77514285D01*
X153475000Y-77478571D01*
X153510714Y-77442857D01*
X153546428Y-77371428D01*
X153582142Y-77228571D01*
X153582142Y-77050000D01*
X153546428Y-76907142D01*
X153510714Y-76835714D01*
X153475000Y-76800000D01*
X153403571Y-76764285D01*
%TO.C,R21*%
X135142857Y-80702380D02*
X135476190Y-80226190D01*
X135714285Y-80702380D02*
X135714285Y-79702380D01*
X135333333Y-79702380D01*
X135238095Y-79750000D01*
X135190476Y-79797619D01*
X135142857Y-79892857D01*
X135142857Y-80035714D01*
X135190476Y-80130952D01*
X135238095Y-80178571D01*
X135333333Y-80226190D01*
X135714285Y-80226190D01*
X134761904Y-79797619D02*
X134714285Y-79750000D01*
X134619047Y-79702380D01*
X134380952Y-79702380D01*
X134285714Y-79750000D01*
X134238095Y-79797619D01*
X134190476Y-79892857D01*
X134190476Y-79988095D01*
X134238095Y-80130952D01*
X134809523Y-80702380D01*
X134190476Y-80702380D01*
X133238095Y-80702380D02*
X133809523Y-80702380D01*
X133523809Y-80702380D02*
X133523809Y-79702380D01*
X133619047Y-79845238D01*
X133714285Y-79940476D01*
X133809523Y-79988095D01*
%TO.C,R22*%
X146082142Y-92739285D02*
X146332142Y-92382142D01*
X146510714Y-92739285D02*
X146510714Y-91989285D01*
X146225000Y-91989285D01*
X146153571Y-92025000D01*
X146117857Y-92060714D01*
X146082142Y-92132142D01*
X146082142Y-92239285D01*
X146117857Y-92310714D01*
X146153571Y-92346428D01*
X146225000Y-92382142D01*
X146510714Y-92382142D01*
X145796428Y-92060714D02*
X145760714Y-92025000D01*
X145689285Y-91989285D01*
X145510714Y-91989285D01*
X145439285Y-92025000D01*
X145403571Y-92060714D01*
X145367857Y-92132142D01*
X145367857Y-92203571D01*
X145403571Y-92310714D01*
X145832142Y-92739285D01*
X145367857Y-92739285D01*
X145082142Y-92060714D02*
X145046428Y-92025000D01*
X144975000Y-91989285D01*
X144796428Y-91989285D01*
X144725000Y-92025000D01*
X144689285Y-92060714D01*
X144653571Y-92132142D01*
X144653571Y-92203571D01*
X144689285Y-92310714D01*
X145117857Y-92739285D01*
X144653571Y-92739285D01*
%TO.C,R23*%
X141482142Y-92939285D02*
X141732142Y-92582142D01*
X141910714Y-92939285D02*
X141910714Y-92189285D01*
X141625000Y-92189285D01*
X141553571Y-92225000D01*
X141517857Y-92260714D01*
X141482142Y-92332142D01*
X141482142Y-92439285D01*
X141517857Y-92510714D01*
X141553571Y-92546428D01*
X141625000Y-92582142D01*
X141910714Y-92582142D01*
X141196428Y-92260714D02*
X141160714Y-92225000D01*
X141089285Y-92189285D01*
X140910714Y-92189285D01*
X140839285Y-92225000D01*
X140803571Y-92260714D01*
X140767857Y-92332142D01*
X140767857Y-92403571D01*
X140803571Y-92510714D01*
X141232142Y-92939285D01*
X140767857Y-92939285D01*
X140517857Y-92189285D02*
X140053571Y-92189285D01*
X140303571Y-92475000D01*
X140196428Y-92475000D01*
X140125000Y-92510714D01*
X140089285Y-92546428D01*
X140053571Y-92617857D01*
X140053571Y-92796428D01*
X140089285Y-92867857D01*
X140125000Y-92903571D01*
X140196428Y-92939285D01*
X140410714Y-92939285D01*
X140482142Y-92903571D01*
X140517857Y-92867857D01*
%TO.C,R24*%
X138339285Y-93617857D02*
X137982142Y-93367857D01*
X138339285Y-93189285D02*
X137589285Y-93189285D01*
X137589285Y-93475000D01*
X137625000Y-93546428D01*
X137660714Y-93582142D01*
X137732142Y-93617857D01*
X137839285Y-93617857D01*
X137910714Y-93582142D01*
X137946428Y-93546428D01*
X137982142Y-93475000D01*
X137982142Y-93189285D01*
X137660714Y-93903571D02*
X137625000Y-93939285D01*
X137589285Y-94010714D01*
X137589285Y-94189285D01*
X137625000Y-94260714D01*
X137660714Y-94296428D01*
X137732142Y-94332142D01*
X137803571Y-94332142D01*
X137910714Y-94296428D01*
X138339285Y-93867857D01*
X138339285Y-94332142D01*
X137839285Y-94975000D02*
X138339285Y-94975000D01*
X137553571Y-94796428D02*
X138089285Y-94617857D01*
X138089285Y-95082142D01*
%TO.C,R25*%
X133539285Y-96817857D02*
X133182142Y-96567857D01*
X133539285Y-96389285D02*
X132789285Y-96389285D01*
X132789285Y-96675000D01*
X132825000Y-96746428D01*
X132860714Y-96782142D01*
X132932142Y-96817857D01*
X133039285Y-96817857D01*
X133110714Y-96782142D01*
X133146428Y-96746428D01*
X133182142Y-96675000D01*
X133182142Y-96389285D01*
X132860714Y-97103571D02*
X132825000Y-97139285D01*
X132789285Y-97210714D01*
X132789285Y-97389285D01*
X132825000Y-97460714D01*
X132860714Y-97496428D01*
X132932142Y-97532142D01*
X133003571Y-97532142D01*
X133110714Y-97496428D01*
X133539285Y-97067857D01*
X133539285Y-97532142D01*
X132789285Y-98210714D02*
X132789285Y-97853571D01*
X133146428Y-97817857D01*
X133110714Y-97853571D01*
X133075000Y-97925000D01*
X133075000Y-98103571D01*
X133110714Y-98175000D01*
X133146428Y-98210714D01*
X133217857Y-98246428D01*
X133396428Y-98246428D01*
X133467857Y-98210714D01*
X133503571Y-98175000D01*
X133539285Y-98103571D01*
X133539285Y-97925000D01*
X133503571Y-97853571D01*
X133467857Y-97817857D01*
%TO.C,R27*%
X138339285Y-90617857D02*
X137982142Y-90367857D01*
X138339285Y-90189285D02*
X137589285Y-90189285D01*
X137589285Y-90475000D01*
X137625000Y-90546428D01*
X137660714Y-90582142D01*
X137732142Y-90617857D01*
X137839285Y-90617857D01*
X137910714Y-90582142D01*
X137946428Y-90546428D01*
X137982142Y-90475000D01*
X137982142Y-90189285D01*
X137660714Y-90903571D02*
X137625000Y-90939285D01*
X137589285Y-91010714D01*
X137589285Y-91189285D01*
X137625000Y-91260714D01*
X137660714Y-91296428D01*
X137732142Y-91332142D01*
X137803571Y-91332142D01*
X137910714Y-91296428D01*
X138339285Y-90867857D01*
X138339285Y-91332142D01*
X137589285Y-91582142D02*
X137589285Y-92082142D01*
X138339285Y-91760714D01*
%TO.C,R28*%
D13*
X133521428Y-91826190D02*
X133688095Y-91588095D01*
X133807142Y-91826190D02*
X133807142Y-91326190D01*
X133616666Y-91326190D01*
X133569047Y-91350000D01*
X133545238Y-91373809D01*
X133521428Y-91421428D01*
X133521428Y-91492857D01*
X133545238Y-91540476D01*
X133569047Y-91564285D01*
X133616666Y-91588095D01*
X133807142Y-91588095D01*
X133330952Y-91373809D02*
X133307142Y-91350000D01*
X133259523Y-91326190D01*
X133140476Y-91326190D01*
X133092857Y-91350000D01*
X133069047Y-91373809D01*
X133045238Y-91421428D01*
X133045238Y-91469047D01*
X133069047Y-91540476D01*
X133354761Y-91826190D01*
X133045238Y-91826190D01*
X132759523Y-91540476D02*
X132807142Y-91516666D01*
X132830952Y-91492857D01*
X132854761Y-91445238D01*
X132854761Y-91421428D01*
X132830952Y-91373809D01*
X132807142Y-91350000D01*
X132759523Y-91326190D01*
X132664285Y-91326190D01*
X132616666Y-91350000D01*
X132592857Y-91373809D01*
X132569047Y-91421428D01*
X132569047Y-91445238D01*
X132592857Y-91492857D01*
X132616666Y-91516666D01*
X132664285Y-91540476D01*
X132759523Y-91540476D01*
X132807142Y-91564285D01*
X132830952Y-91588095D01*
X132854761Y-91635714D01*
X132854761Y-91730952D01*
X132830952Y-91778571D01*
X132807142Y-91802380D01*
X132759523Y-91826190D01*
X132664285Y-91826190D01*
X132616666Y-91802380D01*
X132592857Y-91778571D01*
X132569047Y-91730952D01*
X132569047Y-91635714D01*
X132592857Y-91588095D01*
X132616666Y-91564285D01*
X132664285Y-91540476D01*
%TO.C,R29*%
D12*
X138339285Y-88467857D02*
X137982142Y-88217857D01*
X138339285Y-88039285D02*
X137589285Y-88039285D01*
X137589285Y-88325000D01*
X137625000Y-88396428D01*
X137660714Y-88432142D01*
X137732142Y-88467857D01*
X137839285Y-88467857D01*
X137910714Y-88432142D01*
X137946428Y-88396428D01*
X137982142Y-88325000D01*
X137982142Y-88039285D01*
X137660714Y-88753571D02*
X137625000Y-88789285D01*
X137589285Y-88860714D01*
X137589285Y-89039285D01*
X137625000Y-89110714D01*
X137660714Y-89146428D01*
X137732142Y-89182142D01*
X137803571Y-89182142D01*
X137910714Y-89146428D01*
X138339285Y-88717857D01*
X138339285Y-89182142D01*
X138339285Y-89539285D02*
X138339285Y-89682142D01*
X138303571Y-89753571D01*
X138267857Y-89789285D01*
X138160714Y-89860714D01*
X138017857Y-89896428D01*
X137732142Y-89896428D01*
X137660714Y-89860714D01*
X137625000Y-89825000D01*
X137589285Y-89753571D01*
X137589285Y-89610714D01*
X137625000Y-89539285D01*
X137660714Y-89503571D01*
X137732142Y-89467857D01*
X137910714Y-89467857D01*
X137982142Y-89503571D01*
X138017857Y-89539285D01*
X138053571Y-89610714D01*
X138053571Y-89753571D01*
X138017857Y-89825000D01*
X137982142Y-89860714D01*
X137910714Y-89896428D01*
%TO.C,R30*%
X133539285Y-87817857D02*
X133182142Y-87567857D01*
X133539285Y-87389285D02*
X132789285Y-87389285D01*
X132789285Y-87675000D01*
X132825000Y-87746428D01*
X132860714Y-87782142D01*
X132932142Y-87817857D01*
X133039285Y-87817857D01*
X133110714Y-87782142D01*
X133146428Y-87746428D01*
X133182142Y-87675000D01*
X133182142Y-87389285D01*
X132789285Y-88067857D02*
X132789285Y-88532142D01*
X133075000Y-88282142D01*
X133075000Y-88389285D01*
X133110714Y-88460714D01*
X133146428Y-88496428D01*
X133217857Y-88532142D01*
X133396428Y-88532142D01*
X133467857Y-88496428D01*
X133503571Y-88460714D01*
X133539285Y-88389285D01*
X133539285Y-88175000D01*
X133503571Y-88103571D01*
X133467857Y-88067857D01*
X132789285Y-88996428D02*
X132789285Y-89067857D01*
X132825000Y-89139285D01*
X132860714Y-89175000D01*
X132932142Y-89210714D01*
X133075000Y-89246428D01*
X133253571Y-89246428D01*
X133396428Y-89210714D01*
X133467857Y-89175000D01*
X133503571Y-89139285D01*
X133539285Y-89067857D01*
X133539285Y-88996428D01*
X133503571Y-88925000D01*
X133467857Y-88889285D01*
X133396428Y-88853571D01*
X133253571Y-88817857D01*
X133075000Y-88817857D01*
X132932142Y-88853571D01*
X132860714Y-88889285D01*
X132825000Y-88925000D01*
X132789285Y-88996428D01*
%TD*%
M02*
